<svg viewBox="0 0 41 41" xmlns="http://www.w3.org/2000/svg" xml:space="preserve" style="fill-rule:evenodd;clip-rule:evenodd;stroke-linejoin:round;stroke-miterlimit:2"><path d="M20.52 41.03C9.2 41.03 0 31.83 0 20.52 0 9.21 9.2 0 20.52 0s20.52 9.2 20.52 20.52-9.21 20.52-20.52 20.52v-.01Zm0-38.87c-10.13 0-18.36 8.24-18.36 18.36s8.24 18.36 18.36 18.36 18.36-8.24 18.36-18.36S30.64 2.16 20.52 2.16Z" style="fill:#6d6e71;fill-rule:nonzero"/><path d="M28.11 30.26H12.97c-2.38 0-5.29 0-6.73-2.97-.49-1.04-.59-2.23-.3-3.32l2.82-10.49c.3-.99.79-1.68 1.58-2.18.59-.4 1.34-.59 2.08-.59 1.24 0 2.38.59 2.87 1.58.15.3.25.64.3.99h9.9c.05-.35.15-.69.3-.99.49-.99 1.63-1.58 2.87-1.58.74 0 1.43.2 2.08.59.79.49 1.29 1.19 1.58 2.18l2.82 10.54c.3 1.09.2 2.28-.3 3.27-1.43 2.97-4.35 2.97-6.73 2.97Z" style="fill:#ebf3f7"/><path d="m10 13-2 9h4l2-9-2-1-2 1Z" style="fill:#bbd6e3" transform="matrix(1.1667 0 0 1 -1.33333 0)"/><path d="m10 13-2 9h4l2-9-2-1-2 1Z" style="fill:#bbd6e3" transform="matrix(-1.1667 0 0 1 42.3333 0)"/><path d="M28.11 30.26H12.97c-2.38 0-5.29 0-6.73-2.97-.49-1.04-.59-2.23-.3-3.32l2.82-10.49c.3-.99.79-1.68 1.58-2.18.59-.4 1.34-.59 2.08-.59 1.24 0 2.38.59 2.87 1.58.15.3.25.64.3.99h9.9c.05-.35.15-.69.3-.99.49-.99 1.63-1.58 2.87-1.58.74 0 1.43.2 2.08.59.79.49 1.29 1.19 1.58 2.18l2.82 10.54c.3 1.09.2 2.28-.3 3.27-1.43 2.97-4.35 2.97-6.73 2.97ZM13.751 14.463l.019-.373c0-.4-.05-.84-.15-.99-.2-.3-.69-.49-1.24-.49v-.01c-.4 0-.74.1-1.04.3-.35.2-.59.49-.79 1.09l-1.931 7.312c.79-.329 1.62-.391 2.383-.232.484.1.958.35 1.335.64l1.414-7.247Zm12.401.617H15.111l-1.762 8.96c-.054.35-.431.59-.797.54-.366-.05-.635-.35-.635-.69 0-.25-.054-.45-.162-.69-.269-.45-.635-.69-1.119-.84-.582-.15-1.228 0-1.863.35-.24.144-.533.32-.679.58-.165.295-.293.78-.314 1.19-.027.528-.15 1.34.15 1.98.79 1.63 2.18 1.93 5.05 1.93h15.14c2.82 0 4.26-.3 5.05-1.93.3-.59.159-1.481.15-1.93-.005-.263-.054-.545-.203-.762-.194-.282-.602-.712-.959-.928-.606-.353-1.223-.495-1.778-.353-.463.1-.813.403-1.07.848-.103.252-.205.454-.154.696 0 .354-.257.647-.607.697-.349.051-.709-.202-.76-.545l-1.637-9.103Zm6.342 6.349L30.5 13.94c-.15-.59-.45-.84-.79-1.09-.74-.49-1.93-.3-2.23.25-.084.126-.132.454-.146.792.021.046.036.094.043.143l1.429 7.745c.36-.303.761-.546 1.275-.646.773-.214 1.618-.103 2.413.295Z" style="fill:#3088a9"/></svg>