<?xml version="1.0" encoding="UTF-8" standalone="no"?>
<!DOCTYPE svg PUBLIC "-//W3C//DTD SVG 1.1//EN" "http://www.w3.org/Graphics/SVG/1.1/DTD/svg11.dtd">
<svg width="100%" height="100%" viewBox="0 0 80 80" version="1.1" xmlns="http://www.w3.org/2000/svg" xmlns:xlink="http://www.w3.org/1999/xlink" xml:space="preserve" xmlns:serif="http://www.serif.com/" style="fill-rule:evenodd;clip-rule:evenodd;stroke-linejoin:round;stroke-miterlimit:2;">
    <g transform="matrix(1.03004,0,0,1.03004,7.03863,7.03863)">
        <path d="M32,2.875C48.075,2.875 61.125,15.925 61.125,32C61.125,48.075 48.075,61.125 32,61.125C15.925,61.125 2.875,48.075 2.875,32C2.875,15.925 15.925,2.875 32,2.875ZM32,9.125C19.375,9.125 9.125,19.375 9.125,32C9.125,44.625 19.375,54.875 32,54.875C44.625,54.875 54.875,44.625 54.875,32C54.875,19.375 44.625,9.125 32,9.125Z"/>
        <path d="M32,1.257C48.968,1.257 62.743,15.032 62.743,32C62.743,48.968 48.968,62.743 32,62.743C15.032,62.743 1.257,48.968 1.257,32C1.257,15.032 15.032,1.257 32,1.257ZM32,2.875C15.925,2.875 2.875,15.925 2.875,32C2.875,48.075 15.925,61.125 32,61.125C48.075,61.125 61.125,48.075 61.125,32C61.125,15.925 48.075,2.875 32,2.875ZM32,9.125C44.625,9.125 54.875,19.375 54.875,32C54.875,44.625 44.625,54.875 32,54.875C19.375,54.875 9.125,44.625 9.125,32C9.125,19.375 19.375,9.125 32,9.125ZM32,10.743C20.268,10.743 10.743,20.268 10.743,32C10.743,43.732 20.268,53.257 32,53.257C43.732,53.257 53.257,43.732 53.257,32C53.257,20.268 43.732,10.743 32,10.743Z" style="fill:white;"/>
    </g>
    <g transform="matrix(0.742077,0,0,1.25645,-0.442617,2.67826)">
        <path d="M32.938,25.725L0.596,23.337L8.715,29.704L0.596,36.11L32.938,33.684L46.723,29.704L32.938,25.725Z"/>
    </g>
    <g transform="matrix(-0.742077,0,0,1.25645,79.6719,2.65372)">
        <path d="M32.938,25.725L0.596,23.337L8.715,29.704L0.596,36.11L32.938,33.684L46.723,29.704L32.938,25.725Z"/>
    </g>
    <g transform="matrix(1.36317e-16,0.742077,1.25645,-2.30806e-16,2.65372,-0.442617)">
        <path d="M32.938,25.725L0.596,23.337L8.715,29.704L0.596,36.11L32.938,33.684L46.723,29.704L32.938,25.725Z"/>
    </g>
</svg>
