<svg viewBox="0 0 225 225" xmlns="http://www.w3.org/2000/svg" fill-rule="evenodd" clip-rule="evenodd" stroke-linejoin="round" stroke-miterlimit="2"><path d="M217.11 108.735c0 57.228-46.388 103.598-103.6 103.598-57.218 0-103.601-46.37-103.601-103.598 0-57.21 46.383-103.587 103.6-103.587 57.213 0 103.601 46.376 103.601 103.587" fill="#fff" fill-rule="nonzero"/><path d="M.373.371C.378.341.428.341.449.313.477.277.365.266.386.218.406.169.51.198.525.141.54.089.316.101.307.052c0-.003 0-.007.004-.015.039-.088.243-.095.246-.141C.558-.131.489-.158.468-.166a.3.3 0 00-.093-.018.552.552 0 00-.128.005A.494.494 0 000-.048a.518.518 0 01.037-.121.545.545 0 01.485-.315c.091 0 .158.028.176.036.24.109.292.423.301.488V.038C.996.023.983-.056.918-.116.903-.129.886-.145.859-.153c-.013-.004-.047-.015-.063 0-.023.023.031.077.012.114C.776.022.573-.026.514.033c-.039.04.047.024.079.108C.62.212.487.205.452.219.417.233.495.27.495.307c0 .036-.009.034-.07.062C.379.39.449.453.443.48c0 .003-.002.004-.004.004C.423.484.37.397.373.371zM.999.04L1 .049.999.04z" fill="url(#_Linear1)" fill-rule="nonzero" transform="matrix(213.33281 0 0 -213.32736 4.479 117.554)"/><path d="M128.241 184.233c.368.055-.383-1.584-.954-2.774.614.203 1.212.417 1.881.63 1.124 0 2.045.066 3.06.116 1.074 1.398 3.476 4.386 3.898 4.276.538-.17.28-.422.395-.586 1.124-1.607 2.363-2.457 3.323-2.917 2.424.46 4.36 1.047 5.85 1.721 2.633 2.61 7.228 7.123 7.7 7.002.372-.18-4.19-6.18-4.01-7.369.16-1.212 3.565-3.12 2.967-4.014-.559-.86-3.026.532-6.316-.729-2.013-.756-5.84-3.498-10.276-6.344-.894-1.667-3.06-5.867-3.098-7.238-.29-.954.038-.784-.247-.844-.258-.05-2.253 2.807-3.191 4.19a62.859 62.859 0 00-2.073-1.081c-7.77-3.805-18.665-1.102-18.648.598-.105.663-.516 5.653 16.735 11.876.92 1.217 2.593 3.4 3.004 3.487" fill="#fff" fill-rule="nonzero"/><path d="M112.5 11.838c-55.507 0-100.656 45.159-100.656 100.654 0 55.5 45.149 100.67 100.656 100.67 55.507 0 100.656-45.17 100.656-100.67 0-55.495-45.149-100.654-100.656-100.654m0 213.162C50.468 225 0 174.528 0 112.492 0 50.472 50.468 0 112.5 0S225 50.472 225 112.492C225 174.528 174.532 225 112.5 225" fill="#6c6e70" fill-rule="nonzero"/><path d="M129.552 95.09c.148.038.296.3.428.433.153.153.35.334.52.46.445.324.807.422 1.316.422.938-.005 1.887-.044 2.813.083 1.81.235 3.767.669 5.478 1.43.22.094.576.275.8.302.357.055.598-.4.938-.57.686-.329 1.431-.225 2.09-.027.816.235 1.294.35 2.1.027.307-.126.685-.137.537-.642-.11-.405-.609-.46-.905-.575-.921-.346-1.59-.176-2.506.142.16-.888 1.459-1.606 2.144-1.606-.4-.636-1.749-1.02-2.33-1.102-.768-.121-1.848.06-2.616-.1-.663-.153-.663 0-1.365 0-.811 0-1.58-.334-2.358-.334-.214 0-.532-.005-.79.149-.273.17-.531.427-.805.608-.477.302-1.196.779-1.744.494-.642-.34-.828-1.124-1.656-.998-.252.038-.565.082-.795.175-.252.104-1.294 1.228-1.294 1.228" fill="#047ca1" fill-rule="nonzero"/><path d="M137.74 97.125s2.797.702 3.499 1.31c.696.62 5.138 6.114 8.115 9.272 2.95 3.158 7.052 8.96 8.543 14.651.696 2.456 1.047 5.505 1.31 6.125.253.597.346.75.785.652.433-.099.614-.055.778-.866.176-.817-2.84-9.36-4.32-12.32-1.476-2.95-6.323-8.549-8.587-11.099-2.265-2.538-5.577-5.949-6.46-6.552-.866-.62-3.662-1.173-3.662-1.173M191.167 89.703c-.131.082-.203.373-.29.537-.11.192-.247.422-.373.592-.34.433-.658.625-1.146.768-.905.252-1.826.477-2.682.855-1.666.73-3.432 1.695-4.863 2.9-.181.149-.483.423-.686.51-.329.154-.685-.213-1.063-.279-.746-.131-1.431.176-2.013.548-.718.461-1.14.702-2.007.615-.329-.033-.701.054-.696-.467 0-.427.455-.614.713-.806.784-.592 1.475-.608 2.445-.564-.4-.8-1.847-1.135-2.51-.943.213-.719 1.397-1.47 1.935-1.706.702-.334 1.787-.455 2.49-.822.591-.34.635-.187 1.31-.384.778-.225 1.42-.762 2.171-.976.208-.06.504-.153.8-.082.308.093.631.269.944.367.542.154 1.36.417 1.81-.01.52-.505.482-1.311 1.315-1.415.252-.033.56-.083.806-.055.274.033 1.59.817 1.59.817" fill="#047ca1" fill-rule="nonzero"/><path d="M183.867 93.935s-2.489 1.453-2.993 2.237c-.5.779-3.241 7.298-5.22 11.158-1.958 3.85-4.288 10.566-4.14 16.45.01 2.55.526 5.57.444 6.24-.077.652-.12.822-.57.85-.445.021-.604.115-.993-.615-.395-.74.126-9.782.73-13.033.597-3.252 3.695-9.968 5.17-13.05 1.47-3.07 3.701-7.27 4.376-8.093.663-.833 3.196-2.144 3.196-2.144M162.114 89.305c-.175-.098-.285-.625-.488-.828-.252-.257-.597-.373-.866-.608-.647-.587-.302-1.272-.187-2.035.165-.992.165-1.957.247-2.944.077-.855.093-1.87.417-2.621.373-.9.855-1.848 1.343-2.681.57-.96.949-2.084 1.442-3.137.543-1.13 1.35-1.984 2.2-2.796.29-.274.624-.537.86-.866.181-.252.29-.653.466-.867-.142.993.828.998 1.42 1.24.85.334 1.245 1.414 1.552 2.308.302.866.68 1.722 1.004 2.599.361.998.92 1.88 1.08 2.95.055.384.252.757.197 1.102-.06.362-.395.707-.57 1.014-.252.412-.527.845-.653 1.338-.131.477.033.889-.016 1.344-.05.482-.324.718-.22 1.266.077.422.27.867.379 1.283.093.373.164.817.022 1.157-.137.335-.318.532-.318.943-.011.532.142 1.064-.198 1.508-.263.33-.85.538-1.26.477-.363-.044-.867-.641-1.12-.965-.334-.433-.608-1.014-1.003-1.387-.641-.609-1.804-.313-2.478-.022-.362.159-.768.378-1.157.493-.351.11-2.095.735-2.095.735" fill="#047ca1" fill-rule="nonzero"/><path d="M167.723 72.055s.016 5.757-.324 10.966c-.334 5.209-2.566 19.772-3.433 26.917-.866 7.133-2.292 19.52-1.902 20.907.39 1.376 1.42.899 1.815-1.113.39-2.024.965-12.211 1.074-18.308.105-6.092 2.994-24.06 2.983-28.694-.027-4.633-.224-10.675-.224-10.675h.01zM155.923 94.652c.148-.099.208-.592.378-.784.22-.258.521-.384.752-.609.532-.565.164-1.179 0-1.875-.22-.905-.307-1.777-.45-2.67-.143-.784-.241-1.717-.581-2.38a21.618 21.618 0 00-1.442-2.38c-.598-.855-1.031-1.859-1.563-2.785-.581-1.015-1.376-1.744-2.22-2.446-.286-.23-.604-.455-.845-.75-.187-.215-.324-.566-.505-.768.22.91-.669.97-1.19 1.222-.745.346-1.02 1.366-1.239 2.194-.203.806-.477 1.612-.707 2.434-.252.943-.696 1.782-.762 2.764-.017.35-.165.718-.082 1.025.082.312.405.62.597.883.247.362.549.756.702 1.19.154.433.033.816.115 1.228.077.444.346.658.302 1.157-.039.389-.176.795-.252 1.184-.05.362-.083.762.076 1.064.148.301.324.466.357.855.05.488-.044.976.301 1.354.263.291.817.456 1.19.379.324-.06.746-.636.949-.954.263-.406.477-.96.806-1.316.537-.598 1.606-.4 2.259-.17.34.137.73.307 1.097.4.329.071 1.957.554 1.957.554" fill="#047ca1" fill-rule="nonzero"/><path d="M148.916 79.403s.817 5.22 1.859 9.88c1.058 4.644 3.734 17.502 5.549 23.83 1.82 6.338 1.656 15.934 1.497 17.233-.154 1.316-1.152 1.042-1.799-.729-.647-1.776.603-9.508-.362-15.013-.981-5.488-4.754-21.318-5.4-25.502-.653-4.2-1.344-9.7-1.344-9.7M168.65 106.638c.131-.126.115-.62.252-.834.175-.29.45-.46.641-.723.44-.636-.021-1.19-.296-1.843-.361-.86-.575-1.716-.866-2.571-.263-.757-.51-1.656-.954-2.26a19.656 19.656 0 00-1.799-2.121c-.723-.746-1.305-1.673-1.984-2.506-.73-.905-1.635-1.502-2.578-2.056-.312-.187-.669-.357-.954-.609-.214-.18-.405-.515-.614-.685.357.872-.51 1.069-.987 1.398-.68.46-.79 1.508-.872 2.369-.076.822-.219 1.661-.312 2.511-.104.97-.411 1.87-.318 2.846.044.356-.05.734.077 1.03.137.291.504.549.734.78.302.317.664.657.883 1.063.214.4.16.795.302 1.19.148.427.45.592.482 1.096.022.39-.044.812-.06 1.207.005.367.044.773.247 1.041.197.275.394.412.488.785.12.477.11.97.51 1.299.307.241.882.313 1.233.18.313-.12.636-.745.784-1.09.198-.444.318-1.031.593-1.431.433-.675 1.524-.647 2.198-.521.368.077.774.186 1.146.214.34.022 2.024.24 2.024.24" fill="#047ca1" fill-rule="nonzero"/><path d="M160.782 94.788s1.634 5.028 3.4 9.459c1.781 4.425 1.469 3.482 4.265 9.442 2.802 5.965 4.157 15.468 4.2 16.778.055 1.321-.97 1.206-1.891-.433-.916-1.656-.91-9.486-2.73-14.772-1.838-5.263-3.077-7.084-4.382-11.108-1.31-4.047-3.548-11.07-3.548-11.07l.686 1.704z" fill="#047ca1" fill-rule="nonzero"/><defs><linearGradient id="_Linear1" x1="0" y1="0" x2="1" y2="0" gradientUnits="userSpaceOnUse" gradientTransform="matrix(1 0 0 -1 0 0)"><stop offset="0" stop-color="#bbd9e6"/><stop offset=".33" stop-color="#9fc5d7"/><stop offset=".56" stop-color="#8fbacf"/><stop offset=".76" stop-color="#6aa3bf"/><stop offset=".91" stop-color="#5095b5"/><stop offset="1" stop-color="#5095b5"/></linearGradient></defs></svg>