<svg viewBox="0 0 96 96" xmlns="http://www.w3.org/2000/svg" xml:space="preserve" style="fill-rule:evenodd;clip-rule:evenodd;stroke-linejoin:round;stroke-miterlimit:2"><g transform="matrix(2 0 0 1.84 -8 -3.52)"><ellipse cx="28" cy="28" rx="23" ry="25" style="fill:#fff"/><clipPath id="a"><ellipse cx="28" cy="28" rx="23" ry="25"/></clipPath><g clip-path="url(#a)"><path style="fill:#843f98" d="M-14.49 0h79.52v22.75h-79.52z" transform="matrix(.41934 0 0 1.26213 23.73 9.45)"/><path style="fill:#4d004b" d="M-14.49 0h79.52v22.75h-79.52z" transform="matrix(.4299 -.23015 .31367 .69224 9.9 10.1)"/><path style="fill:#8c96c6" d="M-14.49 0h79.52v22.75h-79.52z" transform="matrix(.84035 .35613 -.2404 .6702 10.72 21)"/></g></g><path d="M20.52 38.87A18.38 18.38 0 0 1 2.16 20.52 18.39 18.39 0 0 1 20.52 2.16a18.38 18.38 0 0 1 18.35 18.36 18.37 18.37 0 0 1-18.35 18.35m0-38.87A20.54 20.54 0 0 0 0 20.52c0 11.3 9.2 20.5 20.52 20.5A20.52 20.52 0 0 0 20.53 0" style="fill:#6c6c6c;fill-rule:nonzero" transform="matrix(2.34026 0 0 -2.33993 0 96)"/></svg>