<svg viewBox="0 0 55 55" xmlns="http://www.w3.org/2000/svg" fill-rule="evenodd" clip-rule="evenodd" stroke-linejoin="round" stroke-miterlimit="2"><path d="M52.95 27.79a25.54 25.54 0 01-25.47 25.47c-13.8 0-25.2-11.53-25.2-25.47A25.46 25.46 0 0127.75 2.32c13.8 0 25.2 11.4 25.2 25.47" fill="#fff" fill-rule="nonzero"/><path d="M53.96 33.9c-5.75 8.15-11.94 21.73-28.04 20.42C9.26 52.97 1.4 30.62 1.4 30.62c2.08 1.18 8.38.25 10.83-.27 6.8-1.43 10.91-6.47 19.7-6.28 10.94.23 14.82 10.52 22.02 9.83" fill="#bcd8e4" fill-rule="nonzero"/><g transform="matrix(1.34064 0 0 -1.34064 0 55)"><clipPath id="a"><path d="M30.8 16c-2.2 0-4 2.6-4 2.6S24.5 16 22.5 16c-2.3 0-4 2.6-4 2.6S17 16 14.5 16c-2.8 0-4.4 2.6-4.4 2.6S8.3 15.8 6 16H1.7L3 11.3S10 1 21.7 1C33.3 1 38 12 38 12c0 2 2 2.5 1 4-1.7 0-4 2.6-4 2.6S33.4 16 30.8 16"/></clipPath><g clip-path="url(#a)"><path d="M30.8 16c-2.2 0-4 2.6-4 2.6S24.5 16 22.5 16c-2.3 0-4 2.6-4 2.6S17 16 14.5 16c-2.8 0-4.4 2.6-4.4 2.6S8.3 15.8 6 16H.83L3 11.3S10 1 21.7 1C33.3 1 38 12 38 12c0 2 2 2.5 1 4-1.7 0-4 2.6-4 2.6S33.4 16 30.8 16" fill="url(#_Linear2)" fill-rule="nonzero" transform="matrix(.93789 0 0 .82812 1.68 .17)"/></g></g><g transform="matrix(1.34064 0 0 -1.34064 0 55)"><clipPath id="b"><path d="M0 0h40.99v40.99H0z"/></clipPath><g clip-path="url(#b)"><path d="M15.16 7.51l-.87-.87v.18l-.76.52a1.9 1.9 0 01-1.08-.35l-1.63-1.3.76 1.39c0 .26-.76.6-.66.86 0 0 .55-.26 1.3 0l2.18 1.13c0 .35.55 1.13.55 1.39v.17l.76-.87c0 .18.22.18.43.26 1.52.7 3.8.18 3.8 0 0-.26 0-1.12-3.47-2.25l-.44-.6v.51s0-.17-.21-.17h-.66M26.77 8.46l.59-.6v.12l.5.36c.3 0 .6-.12.74-.24l1.1-.9-.51.96c0 .18.5.42.43.6 0 0-.36-.18-.87 0l-1.47.79c0 .24-.36.78-.36.96v.13l-.51-.6c0 .11-.15.11-.3.17-1.02.49-2.56.12-2.56 0 0-.18 0-.78 2.34-1.57l.3-.42v.36s0-.12.14-.12h.44" fill="#fff" fill-rule="nonzero"/><path d="M20.5 39c-10 0-18.3-8.4-18.3-18.5 0-10 8.2-18.3 18.3-18.3 10 0 18.4 8.2 18.4 18.3 0 10-8.4 18.4-18.5 18.4m0-39C9.2 0 0 9.2 0 20.5S9.2 41 20.5 41 41 31.8 41 20.5 31.8 0 20.5 0" fill="#737577" fill-rule="nonzero"/></g></g><g transform="matrix(.7261 0 0 -.7261 28.75 35.28)"><clipPath id="c"><path d="M5.08 26h4v2.68h-4z"/></clipPath><g clip-path="url(#c)"><path d="M7.37 26.45c.02-.08.06-.13.12-.15.2.32.12-.13.17-.18.12-.18.28.04.36.2.03.1-.08.13.03.2.02.03.18-.04.2-.07.02-.02-.07-.53.1-.26l.2-.2c.08.07.1.16.1.25.1-.03.13-.15.24-.06l.16.32c.07.2-.08.3-.18.46-.07.13-.1.1-.04.26.05.13.18.16.18.33 0 .02-.12.22-.15.25-.1.14-.15.14-.27 0 0 .07-.04.14-.05.2-.17-.27-.28 0-.4.08-.2.1-.34.1-.44.3-.03.08 0 .26-.1.28-.14 0-.1-.2-.15-.28-.18-.32-.17.13-.34.2-.1-.13-.08-.6-.24-.4-.08-.1-.13-.22-.2-.33-.08.07 0 .43-.17.4-.26-.04-.1-.46-.12-.57-.05-.2-.1-.08-.13 0-.07.1.1.16-.1.2-.34.05-.13-.28-.3-.4-.06-.03-.17.1-.26.03-.07-.03-.06-.13-.1-.16-.05-.04-.1-.02-.14-.05-.13-.12-.26-.25-.27-.45-.03-.1 0-.2.06-.24.12-.04.16.1.26.1.18.03.22-.12.43-.02.04.02.06.13.1.14.05 0 .06-.06.1-.06.1 0 .04-.07.2 0 .18.1.32.3.47.12-.1-.15-.3-.03-.3-.27-.02-.23.16-.16.3-.13.05.03.07.1.16.1.05 0 .1-.04.15-.07.18-.04.23-.08.36-.22.02 0 0 .03.03.04" fill="#1d81a4" fill-rule="nonzero" opacity=".9"/></g></g><g transform="matrix(.7261 0 0 -.7261 28.75 35.28)"><clipPath id="d"><path d="M5.53 28.2h3.3v-1.75h-3.3v1.76-.01z"/></clipPath><g clip-path="url(#d)"><path d="M7.32 27.4c-.23-.2.24-.57.42-.4.1.06.2.46.3.15.04-.08-.04-.15 0-.23.04-.14.04-.02.15-.05.15-.04.14-.04.23-.2.07-.13.1-.32.3-.15.3.24-.2.6-.32.75.13.1.36.1.36.3.02.25-.24.17-.38.2-.08 0-.3.2-.38.13-.1-.1.1-.2.07-.34-.27-.02-.2.43-.4.35-.13-.07-.13-.35-.26-.26-.1.07 0 .23 0 .3 0 .14.04.12-.06.2-.05.04-.14.08-.2.07-.1-.02-.3-.2-.32-.3-.02-.13.16-.14.1-.32-.2 0-.2.28-.35.3-.27.06-.03-.4-.05-.5-.2 0-.22.1-.32.26-.06.1 0 .2-.13.07-.06-.03-.1-.22-.1-.3-.08.05-.13.1-.23.05-.1-.08-.06-.22-.2-.24.1-.06.25-.16.38-.2.1-.02.17 0 .25.03.04.02.07.1.12.1.05 0 .1-.04.14-.03.13.03.34.04.42.12.08.08 0 .23.16.3.08.03.17 0 .24-.05" fill="#1d81a4" fill-rule="nonzero" opacity=".75"/></g></g><path d="M36.94 19.03s-.82-.26-1.06-.31a6.24 6.24 0 01-.95-.38c-.22-.1-1.18-.8-1.18-.8l1.23.71c.13.07.22.07.22.07s-.32-.24-.5-.45c-.19-.2-.44-.36-.66-.58-.2-.23-.3-.43-.3-.43l1 .94c.21.22.5.5.65.62.12.1 1.61.5 1.61.5l-.05.1z" fill="#1d81a4" fill-rule="nonzero"/><path d="M36.83 18.98l1.2-.44s.83-.6.97-.8c.14-.2.35-.67.35-.67s-.63.96-1.37 1.36c-.75.4-1.28.44-1.28.44l.15.1h-.02zm-.16-2.32l-.44-.78s-.58-.45-.75-.5c-.18-.06-.6-.08-.6-.08s.86.2 1.26.66c.39.43.45.82.45.82l.07-.13v.01z" fill="#1d81a4" fill-rule="nonzero"/><path d="M36.71 19.46s.9-.18 1.3-.37c.4-.2.59-.44.76-.64.18-.2.56-.79.56-.79l-.77.85c-.13.18-.35.36-.6.45-.26.07-1.23.4-1.23.4v.11h-.02z" fill="#1d81a4" fill-rule="nonzero"/><path d="M36.64 18.48s.99-.67 1.12-.66c.14 0 .16.17.32.13.16-.04 1.6-.64 1.64-.61.03.02-1.63.65-1.58.7.05.06.63.29.6.29-.02.02-.56-.12-.74-.29-.17-.15-.16-.12-.3-.09a9.8 9.8 0 00-1.03.6l-.03-.08z" fill="#1d81a4" fill-rule="nonzero"/><path d="M36.77 15.94s0 4.58.05 7.34l.04 2.86c.02.21 0 .72.05.8.08.1.08.07.12.1.04.04.13.13.06.15-.07.01-.22-.07-.31.04-.1.1-.08.18-.15.18-.07 0-.01-.07-.1-.07h-.2c-.08 0-.05-.11-.11-.14-.06-.05.03-.15.07-.22.01-.07.09-.34.09-.52 0-.2.06-.42.04-.59 0-.1.07-3.68.09-6.31 0-1.55.05-2.2.04-2.64 0-.43.22-.96.22-.96" fill="#1d81a4" fill-rule="nonzero"/><g transform="matrix(.7261 0 0 -.7261 28.75 35.28)"><clipPath id="e"><path d="M12.16 26.63h3.25V24.1h-3.24v2.53z"/></clipPath><g clip-path="url(#e)"><path d="M13.55 24.36c.13-.08.07-.23.28-.25.1.13-.04.2-.04.3 0 .06.1.05.07.1 0 .05-.13.1-.17.1l.1.04c.02 0 .1.07.1.08.17.1.1.04.3.02.23-.02.36.12.43.28.1.17.13.14.36.18.16.02.36.14.4.27a.67.67 0 01-.27.07c.02.14.1.1-.06.23.07.03.32 0 .32.1-.02.12-.25.03-.33.05-.37.1.35.1.26.23-.1.13-.25 0-.34 0-.14.04-.15.14-.23.12-.05 0-.1-.16-.13-.2a.34.34 0 00-.26-.15c-.02.05 0 .1 0 .15-.3 0-.2-.17-.22-.3-.06 0-.1.03-.15.07-.03-.07-.06-.1-.03-.18.02-.08.13-.1.1-.2-.1 0-.18.07-.24.12-.12-.1.13-.2.1-.27-.03-.06-.32.06-.18-.13-.22.04-.23.08-.17.23.08.2.08.16-.15.22 0 .05 0 .24-.04.3-.05.13-.2.15-.25.02-.2.12.1.4.12.52 0 .08-.05.18-.17.17-.08 0-.2-.14-.23-.18 0 .05-.06.1-.1.12-.14-.1-.14-.1-.07-.23.05-.1.12-.16 0-.25 0 .1.04.2-.16.2-.22.04-.2-.1-.17-.22.03-.1.02-.22.1-.3.08-.08.26-.14.36-.2-.3.1-.5-.1-.18-.24-.13-.08.06-.1.1-.2-.08 0-.22.03-.27 0-.1-.04-.1-.2.02-.25-.1-.15-.33.08-.34-.13 0 0 .07-.03.07-.06.02-.03-.05-.08-.05-.1.02-.03.2-.14.24-.15.13-.07.3-.1.43-.15.2-.08.33-.18.44-.02.1-.07.25-.07.25.06" fill="#1d81a4" fill-rule="nonzero" opacity=".9"/></g></g><g transform="matrix(.7261 0 0 -.7261 28.75 35.28)"><clipPath id="f"><path d="M10.58 23.77h2.1v1.7h-2.1z"/></clipPath><g clip-path="url(#f)"><path d="M12.7 23.86c0 .12-.16.05-.18.14 0 .08.1.1.1.18 0 0-.1.02-.1.07 0 .03.07.06.07.1 0 .07 0 .16-.13.18-.03-.1-.1-.08-.13 0 0 .08.13.12 0 .16 0-.02 0-.03-.02-.04-.03.04.13.3-.1.16 0 .04.03.13 0 .16-.06.05-.17 0-.24.04 0-.07.06-.26 0-.32-.15-.18-.18.17-.32.14.02-.07-.03-.2-.1-.08-.04.05 0 .13 0 .2v.12c-.1.1-.07.04-.12-.02-.03-.04.03-.16-.1-.13-.14.02-.05.18-.03.22.06.1.1.1 0 .17-.02.05-.1.1-.2.07-.03.08-.18.1-.25 0-.03-.04.03-.17.04-.2-.06-.02-.1-.05-.16-.06l.1-.1c-.03 0-.07-.05-.12-.05l.1-.1c-.08-.03-.34-.1-.2-.2.08-.07.26.02.37-.02-.05-.05-.1-.12-.1-.17l.22.03c-.13-.24.25-.1.3-.3-.13-.03-.18.1-.36.05.02-.03 0-.08 0-.1-.02 0-.08-.04-.12-.04.03 0 .05-.04.06-.06-.07-.02-.15-.04-.2-.1.08-.05.16 0 .22-.05.03-.02.02-.1.02-.14.1-.02.16 0 .2.08.18-.1.15-.02.3.08.07-.08-.1-.27.13-.17.14.04.18.28.33.22.06-.04 0-.12.07-.15.06-.02.1.04.1.04-.02.02.1-.02.1-.02-.02 0 .06-.05.07-.05h.13c.07 0 .14-.05.2.02" fill="#1d81a4" fill-rule="nonzero" opacity=".9"/></g></g><g transform="matrix(.7261 0 0 -.7261 28.75 35.28)"><clipPath id="g"><path d="M9.44 24.87h1.1v.63h-1.1z"/></clipPath><g clip-path="url(#g)"><path d="M9.48 25.45l.12-.02c.05 0 .1.06.13.07h.1c.03 0 .06-.06.1-.07.06 0 .12.07.17.06.1-.06 0-.2.14-.23.08-.02.16.15.25.1.16-.13-.1-.16-.12-.2-.05-.1.06-.2-.03-.26-.1-.05-.14.13-.2.15-.02-.04-.04-.14-.08-.16-.1-.08-.07.03-.13.07a.67.67 0 01-.25.13c-.06 0-.27-.13-.26.08.02.08.14 0 .14.1 0 .05-.08.12-.1.14" fill="#1d81a4" fill-rule="nonzero" opacity=".9"/></g></g><g transform="matrix(.7261 0 0 -.7261 28.75 35.28)"><clipPath id="h"><path d="M6.15 23.43h2.98v2H6.15z"/></clipPath><g clip-path="url(#h)"><path d="M7.86 23.76c0-.05.05-.1.1-.1.14.23.1-.1.12-.15.1-.12.2.05.27.16.02.07-.06.1.02.16.02.02.14-.03.16-.05 0-.02-.06-.4.07-.2.05-.05.1-.1.15-.13.05.04.07.1.07.17.08 0 .1-.1.18-.03l.12.24c.05.16-.06.23-.13.36-.07.1-.1.08-.04.2.03.1.13.1.13.24-.02 0-.1.16-.12.2-.07.1-.1.1-.2 0 0 .04-.04.1-.04.13-.12-.2-.2 0-.3.06-.14.08-.25.06-.33.22-.02.05 0 .2-.07.2-.1 0-.08-.14-.1-.2-.14-.24-.14.1-.26.15-.1-.1-.07-.45-.2-.3-.05-.07-.1-.17-.13-.25-.07.05-.02.33-.13.3-.18-.03-.06-.35-.07-.43-.05-.16-.08-.06-.1-.02-.05.1.06.13-.08.16-.25.04-.1-.2-.22-.3-.05 0-.13.07-.2.03-.04-.02-.04-.1-.07-.12-.03-.03-.07 0-.1-.04-.1-.08-.2-.17-.2-.32 0-.07 0-.16.06-.18.08-.03.1.06.2.08.12.02.15-.1.3-.02.04 0 .05.1.08.1.04 0 .05-.05.07-.05.08 0 .03-.04.16.02s.23.2.34.08c-.08-.1-.2-.02-.23-.2 0-.18.13-.12.22-.1.06.02.07.07.13.08.03 0 .07-.04.1-.05a.45.45 0 00.27-.17c.02 0 .02 0 .03.02" fill="#1d81a4" fill-rule="nonzero" opacity=".9"/></g></g><g transform="matrix(.7261 0 0 -.7261 28.75 35.28)"><clipPath id="i"><path d="M6.5 23.78h2.45v1.3H6.5z"/></clipPath><g clip-path="url(#i)"><path d="M7.83 24.46c-.17-.14.17-.4.3-.3.07.06.15.36.24.13.02-.07-.04-.12-.02-.18.04-.1.04-.02.12-.04.12-.03.12-.03.18-.15.06-.1.08-.24.23-.12.22.2-.15.46-.24.57.1.08.25.08.26.24 0 .18-.18.13-.3.15-.04 0-.2.16-.27.1-.07-.1.08-.16.05-.26-.2-.02-.15.3-.3.25-.1-.06-.1-.27-.2-.2-.07.05 0 .17 0 .23 0 .1.03.08-.04.14a.28.28 0 01-.15.06c-.08-.03-.23-.15-.25-.25 0-.08.12-.1.08-.22-.16 0-.15.2-.26.24-.2.04-.03-.3-.04-.38-.16 0-.17.08-.24.2-.06.06 0 .13-.1.05-.05-.02-.08-.17-.07-.22-.07.03-.1.07-.2.03-.06-.05-.03-.15-.14-.17.08-.05.18-.12.28-.15.07-.02.13 0 .2.02.02 0 .04.06.08.07.04 0 .07-.03.1-.02.1.02.26.03.32.08.06.07 0 .18.12.23.06.03.13 0 .17-.04" fill="#1d81a4" fill-rule="nonzero" opacity=".75"/></g></g><g transform="matrix(.7261 0 0 -.7261 28.75 35.28)"><clipPath id="j"><path d="M9.82 26.78h1.68v1.76H9.82z"/></clipPath><g clip-path="url(#j)"><path d="M11.43 27.67c-.35-.17.08-.46-.1-.7-.1-.13-.15.04-.26-.02-.15-.1-.03-.25-.18-.1-.05.03.03.12-.1.07-.07-.03-.03-.15-.14-.13-.18.02.16.34-.1.15-.1-.06-.15-.22-.26-.1-.06.08-.03.3.07.34-.06.12-.2.07-.3.12-.1.07-.1.16-.15.27-.04.1-.14.2-.1.34.08.22.14 0 .24-.06.07.06-.15.7.06.58.08-.06.03-.3.15-.28.06.02.13.25.16.3.07-.08-.04-.2.02-.28.13.3.12-.07.13-.14.05 0 .1.03.15.07.06-.12-.08-.44.05-.47.23-.06.12.3.1.37l.12.02c-.02.15-.25.33-.04.5v-.2c.06 0 .1.06.15.13.04-.1 0-.2.03-.3.07-.22.1 0 .2-.03.13-.05 0-.3.02-.34 0 0 .3-.1.06-.14" fill="#1d81a4" fill-rule="nonzero" opacity=".9"/></g></g><g transform="matrix(.7261 0 0 -.7261 28.75 35.28)"><clipPath id="k"><path d="M10.9 28.27h.47v-.94h-.46v.94z"/></clipPath><g clip-path="url(#k)"><path d="M11.1 28.27c-.18-.07.13-.3-.1-.33.03-.1.1-.28.2-.3.03-.2-.3.05-.3-.24 0-.2.33.07.4.16.17.2 0 .65-.2.7" fill="#1d81a4" fill-rule="nonzero" opacity=".8"/></g></g><g transform="matrix(.7261 0 0 -.7261 28.75 35.28)"><clipPath id="l"><path d="M8.74 26.54h1.42v.98H8.74z"/></clipPath><g clip-path="url(#l)"><path d="M10.16 27.3c-.06-.1-.18-.15-.25-.24-.07-.1-.1-.23-.2-.3v.18c-.16-.1-.3-.44-.5-.4.02.05 0 .1.04.13-.07.02-.38-.04-.2.14-.06.02-.2 0-.25.02-.1.08-.03.2.07.18-.02.06-.15.18-.13.24.03.1.15-.1.18-.1 0 .03.05.08.05.1.07-.03.1-.14.17-.16 0 .2.1.07.2.07.02.13-.18.2-.12.33.08.14.17-.13.25-.14 0 .24.15.1.24.03l.03.07c.12.03.16-.07.25-.12.07-.02.12.03.17-.03" fill="#1d81a4" fill-rule="nonzero" opacity=".9"/></g></g><g transform="matrix(.7261 0 0 -.7261 28.75 35.28)"><clipPath id="m"><path d="M9.98 26.4h1.5v.7h-1.5z"/></clipPath><g clip-path="url(#m)"><path d="M10.1 26.5c.04.17.1-.04.17-.05.05 0 .05.06.08.07h.13c0 .08-.1.18-.16.15 0 .05.07.12.12.12.08 0 .04-.03.06-.1 0-.05-.03-.1 0-.12.05-.04.1.02.13.07.1-.05.1-.24.2-.24s.17.2.06.25c-.08.04-.24-.04-.3.07-.06.15.22.25.2.03.1.07.12 0 .2-.02.05 0 .1.02.13 0 .05 0 .08-.08.14-.08.06-.02.23.04.14.14-.02.03-.17.04-.2.04.02.12.05.06.12.08l.14.08c.07.22-.2.05-.24.03-.02 0-.04-.05-.06-.06l-.08.02c-.05-.03-.07-.1-.12-.1-.13-.05-.15.17-.26.17 0-.18-.1.02-.13.03-.07 0-.05-.07-.07-.1-.05-.07 0-.04-.08-.06-.03 0-.06.03-.1 0-.04-.04-.03-.1-.06-.13-.03-.02-.24-.08-.1-.15-.07-.02-.18.03-.18-.12 0-.1.08-.12.1-.03" fill="#1d81a4" fill-rule="nonzero" opacity=".85"/></g></g><g transform="matrix(.7261 0 0 -.7261 28.75 35.28)"><clipPath id="n"><path d="M10.5 27.48h.36v-.38h-.35v.38z"/></clipPath><g clip-path="url(#n)"><path d="M10.52 27.36c-.04-.1.02-.1.05-.14.03-.04.06-.04.1-.12 0 .15.1.1.18.07.07.14-.1.14-.18.16.05.05.07.13 0 .14-.1.02-.1-.05-.13-.1" fill="#1d81a4" fill-rule="nonzero" opacity=".9"/></g></g><g transform="matrix(.7261 0 0 -.7261 28.75 35.28)"><clipPath id="o"><path d="M11.47 26.3h.46v.7h-.46z"/></clipPath><g clip-path="url(#o)"><path d="M11.52 26.85c0-.15-.1-.1 0-.23.02-.04.04.03.06-.05 0-.04-.08-.06-.06-.14.04-.14.14.02.17.02.07 0 .14-.16.23-.14 0 .1-.08.12-.14.18-.1.1-.03.08 0 .2.1 0 .02.06.04.1.02.07.08.12.03.2-.08.1-.08-.07-.1-.1-.03-.06-.1-.03-.08-.15-.07.04-.1.1-.17.12" fill="#1d81a4" fill-rule="nonzero" opacity=".9"/></g></g><g transform="matrix(.7261 0 0 -.7261 28.75 35.28)"><clipPath id="p"><path d="M11.05 26.2h.5v.4h-.5z"/></clipPath><g clip-path="url(#p)"><path d="M11.2 26.57c-.02-.14.13-.1.2-.06.02-.2.07-.06.13-.15.07-.1-.03-.16-.1-.13-.07.02-.1.06-.2.06-.07 0-.2 0-.18.1.02 0 .03 0 .05.02-.04.14-.07.24.1.2" fill="#1d81a4" fill-rule="nonzero" opacity=".85"/></g></g><g transform="matrix(.7261 0 0 -.7261 28.75 35.28)"><clipPath id="q"><path d="M11.04 26.45h2.54v1.5h-2.54z"/></clipPath><g clip-path="url(#q)"><path d="M12.45 27.8c-.26-.37.3-.3.44-.32.13 0 .2-.08.3-.1.12-.02.3.17.3-.06-.06-.07-.04-.07-.06-.14.05 0 .1-.05.14-.07-.2-.2-.8.28-.73-.25-.2.07-.1.2-.24.05-.02-.02 0-.14-.05-.2-.04 0-.1.13-.1.15-.02-.05-.07-.12-.05-.2-.16-.08-.23.04-.18.2-.34.1.16-.37-.13-.4-.18 0-.1.12-.16.24 0-.02.1.06.04.13-.04.04-.07-.03-.1 0 .03-.03-.06-.12-.08-.12-.1 0-.06.15-.13.15-.14 0-.16-.12-.28-.12-.14 0-.38.24-.36.44.07 0 .16-.04.24-.06l-.05.1c.1.07.17-.07.26-.16-.04.07-.04.18-.06.23.06 0 .16 0 .23-.04 0 .32.4.4.35.1.03.13 0 .26-.03.34.06 0 .1 0 .16-.07.06.1.25.48.38.3l-.1-.1" fill="#1d81a4" fill-rule="nonzero" opacity=".9"/></g></g><g transform="matrix(.7261 0 0 -.7261 28.75 35.28)"><clipPath id="r"><path d="M12.3 23.37h1.18v.75H12.3z"/></clipPath><g clip-path="url(#r)"><path d="M13.44 23.95c-.03-.18-.1-.24-.22-.28-.03 0-.1.03-.1 0-.04 0-.05-.08-.06-.1-.04 0-.1-.04-.15-.07-.1-.07-.14-.14-.3-.12-.05 0-.07.05-.12.05-.06 0-.1-.05-.18-.04 0 .05.03.1.07.13l.1.05c.07.1-.02.2.06.28.1.1.13-.13.2-.14.15-.02.06.1.1.2.1.2.12-.05.16-.06.15 0 .08.2.14.26.03.02.17-.03.22-.04.02 0 .06.07.1.03.05-.04 0-.1-.03-.14" fill="#1d81a4" fill-rule="nonzero" opacity=".9"/></g></g><path d="M39.08 18.14c0 .11 0 .18-.12.15 0 .07-.12.14-.17.14-.07.02-.07-.03-.15-.06-.06 0-.13.04-.2.03-.09-.03-.1-.12.01-.1-.14-.2.06-.1.13-.2.1-.1-.1-.39.1-.26 0-.2.2-.14.25-.27.03.05.15.13.2.14.06.02.22-.01.12.1.09.1.12-.02.2-.07.05 0 .06.05.1.02.04-.02.06-.1.08-.13l.02.1c.02-.1.1-.07.15 0 .05-.04.07-.1.11-.16.05-.05.08-.05.17-.03l-.06.05c.02.04.07.07.11.07-.03.04-.07.05-.1.05.02.04.06.05.12.08-.1.07-.2.14-.3.18.08.07.2.03.26 0 .03 0 .07-.11.13-.06.04.04 0 .1-.04.14.05.08.13.03.18.12-.15.04-.3-.02-.37.19.06.05.12-.05.2-.06.04 0 .07.05.07.05l.12-.02-.07.09c.06.01.16-.02.16.07-.06.02-.02.1-.09.15h-.17c-.08 0-.32.1-.32-.06-.08 0-.15 0-.2-.02-.1-.03-.15-.08-.25-.03 0 .1.01.3-.12.24-.07-.03-.1-.19-.15-.25-.17-.22 0-.04.04-.18.02-.07-.12-.18-.14-.22" fill="#1d81a4" fill-rule="nonzero" opacity=".9"/><g transform="matrix(.7261 0 0 -.7261 28.75 35.28)"><clipPath id="s"><path d="M13.4 23.17h2.2v1.43h-2.2z"/></clipPath><g clip-path="url(#s)"><path d="M13.97 23.7l-.06.12c-.1-.07-.08-.2-.22-.14-.05-.14-.2 0-.28-.14.07-.08.2-.16.28-.17.02 0 .24.04.25.06.02 0 .1.15.13.17.05.07.06.15.12.22.06.1.4.14.38-.04 0-.12-.18 0-.13-.22.1-.26.2 0 .28-.04.07-.02.04-.1.12-.14.07-.03.1.07.17-.02.05-.07-.06-.15.07-.2.12 0 .07.08.13.16 0 0 .1.18.1.16.07.05.1 0 .2.02.04.02.12.1.1.17-.02.07-.1.02-.14.04l-.18.1c-.1-.06-.02-.2-.08-.24-.08-.1-.27.02-.34.07-.12.06-.23.1-.18.3 0 .06.14.12.08.22-.03.07-.08.05-.13.05s-.12-.06-.16 0c-.05.03 0 .2 0 .24 0 .06 0 .13-.05.16-.1.03-.03-.18-.07-.2-.06-.04-.1.08-.1.1-.06 0-.07-.1-.06-.17-.1-.04-.17.02-.25.07.02-.1.03-.17-.03-.23-.04-.03-.14.04-.17 0-.04-.03-.06-.14-.02-.18.08-.1.1 0 .17.03.07.04.3.2.27 0 0-.05-.1-.14-.14-.17-.05-.06 0-.2-.12-.13" fill="#1d81a4" fill-rule="nonzero" opacity=".85"/></g></g><g transform="matrix(.7261 0 0 -.7261 28.75 35.28)"><clipPath id="t"><path d="M14.05 25.66h.73v-.45h-.73v.46-.01z"/></clipPath><g clip-path="url(#t)"><path d="M14.4 25.62c0-.03-.04-.05-.04-.1-.1.06-.24.2-.3 0 .08 0 .2-.03.25-.1.05-.04.08-.12.1-.16.06-.03.06 0 .1-.02 0 0 .2-.03.23-.02.1.04.03.15-.06.17.07.13.17.26-.04.24-.02 0-.02-.07-.04-.07l-.08.02c-.04 0-.06.15-.1 0" fill="#1d81a4" fill-rule="nonzero" opacity=".9"/></g></g><g transform="matrix(.7261 0 0 -.7261 28.75 35.28)"><clipPath id="u"><path d="M12.28 25.37h1.6v-1.04h-1.6v1.04z"/></clipPath><g clip-path="url(#u)"><path d="M13.52 25.37c0-.2.06-.2.16-.23.1-.05.15-.03.2-.2-.08-.03-.16 0-.24-.06-.08-.08-.03-.18-.14-.25-.06-.03-.13-.02-.2-.03-.07 0-.18-.1-.25-.08-.08 0-.08.15-.2.08-.03-.04 0-.1-.05-.14-.04-.04-.08-.04-.12-.07-.16-.13-.34-.07-.4.2.12.03.28-.07.4-.04.2.05.04.3.27.28.1 0 .37-.18.42.05.05.26-.33-.17-.27.17.22-.02.08.15.07.3.1.03.2-.06.3-.02" fill="#1d81a4" fill-rule="nonzero" opacity=".85"/></g></g><g transform="matrix(.7261 0 0 -.7261 28.75 35.28)"><clipPath id="v"><path d="M13.52 24.45h1.68v1.08h-1.68z"/></clipPath><g clip-path="url(#v)"><path d="M14.62 24.47c-.1-.07-.12.05-.2.08-.06.04-.1 0-.18.03-.1.02-.18.08-.3.08-.1 0-.25-.1-.34-.05-.23.14.08.17.16.2 0 .14-.13.22-.1.38.03 0 .1 0 .12-.04.04.1 0 .2-.02.3.03 0 .1 0 .14-.04 0 .27.18.03.3-.03.14-.06.05-.03.16.02.14.06.12.06.2-.03.05-.03-.02-.1.08-.12.03 0 .06.1.1.1.1 0 .13-.07.22-.12.05-.02.15 0 .2-.07.03-.05.03-.25.04-.3-.22-.05-.23-.1-.1-.33-.1-.03-.17 0-.25 0-.05.02-.08.05-.13.03-.08-.02-.04-.1-.13-.1" fill="#1d81a4" fill-rule="nonzero" opacity=".7"/></g></g><g transform="matrix(.7261 0 0 -.7261 28.75 35.28)"><clipPath id="w"><path d="M10.12 25.93h.68v.55h-.68z"/></clipPath><g clip-path="url(#w)"><path d="M10.46 26.48c.08 0 .13-.03.2-.06.12-.02.22-.05.06-.1-.04 0-.12.02-.14-.04 0-.05.1-.07.1-.12.07-.17-.1-.06-.16-.03-.02-.17-.14-.2-.26-.2l.05.1c-.03 0-.13-.02-.15 0-.1.14.1.1.12.1.13.04.03.1.07.16.04.05.16-.04.22 0-.04.05-.1.1-.13.16 0 0 .03 0 .03.02" fill="#1d81a4" fill-rule="nonzero" opacity=".85"/></g></g><g transform="matrix(.7261 0 0 -.7261 28.75 35.28)"><clipPath id="x"><path d="M11.94 29.5h4.36v-3.38h-4.36v3.4-.02z"/></clipPath><g clip-path="url(#x)"><path d="M13.8 26.46c.18-.1.1-.3.38-.34.14.16-.06.25-.06.4 0 .07.16.06.12.14-.02.05-.18.1-.23.13l.16.03s.1.1.12.1c.2.14.12.07.4.04.3-.02.47.16.58.37.1.23.16.2.47.25.24.02.5.17.57.35-.1.06-.25.08-.38.1.03.2.15.13-.08.3.1.04.42 0 .43.12 0 .18-.33.06-.43.1-.5.13.47.12.36.3-.14.16-.35 0-.46 0-.18.04-.2.18-.3.15-.07 0-.12-.2-.17-.26-.1-.1-.17-.2-.35-.2-.03.05-.02.14 0 .2-.4 0-.27-.24-.3-.42-.07 0-.15.06-.2.1-.06-.08-.1-.13-.06-.23.03-.1.18-.13.12-.24a.43.43 0 00-.3.14c-.17-.15.17-.28.14-.36-.05-.1-.44.06-.25-.2-.3.06-.3.12-.22.32.1.25.1.2-.22.3.03.06 0 .3-.05.4-.05.16-.25.18-.32.02-.27.16.15.54.17.7 0 .1-.08.24-.24.23-.1 0-.26-.18-.3-.24-.02.07-.1.13-.17.16-.16-.14-.16-.12-.06-.3.05-.15.15-.22 0-.35-.02.15.04.28-.22.3-.3.05-.25-.12-.23-.3.03-.12.03-.3.14-.4.1-.1.34-.2.48-.3-.4.17-.67-.1-.24-.3-.18-.1.07-.13.12-.26-.1 0-.3.05-.35.02-.14-.07-.15-.3.02-.35-.14-.18-.45.12-.46-.16 0 0 .1-.03.1-.07 0-.06-.08-.12-.07-.16.02-.03.25-.17.3-.2.2-.08.42-.12.6-.2.25-.1.43-.23.58 0 .15-.1.36-.1.35.06" fill="#1d81a4" fill-rule="nonzero" opacity=".9"/></g></g><g transform="matrix(.7261 0 0 -.7261 28.75 35.28)"><clipPath id="y"><path d="M14.48 27.6h.97v.6h-.97z"/></clipPath><g clip-path="url(#y)"><path d="M14.94 28.16c0-.05-.05-.08-.05-.14-.15.08-.34.28-.42 0 .1-.02.26-.05.34-.14.06-.05.1-.16.13-.2.08-.06.08-.02.14-.04 0 0 .24-.05.28-.03.14.07.05.2-.08.24.1.2.23.36-.05.33-.02 0-.02-.1-.05-.1l-.1.04c-.05 0-.07.23-.14.03" fill="#1d81a4" fill-rule="nonzero" opacity=".9"/></g></g><g transform="matrix(.7261 0 0 -.7261 28.75 35.28)"><clipPath id="z"><path d="M12.1 26.42h2.15v1.4H12.1z"/></clipPath><g clip-path="url(#z)"><path d="M13.76 27.8c-.02-.24.08-.25.2-.3.16-.06.2-.03.3-.27-.13-.03-.24.02-.34-.07-.1-.1-.04-.24-.2-.33-.06-.05-.16-.03-.25-.05-.1-.02-.24-.13-.34-.1-.1 0-.1.2-.25.1-.06-.05-.04-.14-.1-.2-.04-.03-.1-.03-.15-.08-.2-.16-.45-.08-.52.3.16.03.38-.1.54-.07.25.07.05.4.35.38.12 0 .5-.24.56.07.06.36-.44-.22-.37.24.3 0 .1.2.1.4.12.06.27-.06.4-.02" fill="#1d81a4" fill-rule="nonzero" opacity=".85"/></g></g><g transform="matrix(.7261 0 0 -.7261 28.75 35.28)"><clipPath id="A"><path d="M13.76 26.58H16v1.45h-2.24z"/></clipPath><g clip-path="url(#A)"><path d="M15.23 26.6c-.12-.1-.15.07-.26.12-.08.04-.15 0-.24.03-.15.03-.25.1-.4.1-.13 0-.34-.13-.47-.06-.3.17.12.2.23.25-.03.18-.2.3-.16.5.05 0 .13 0 .18-.05.05.16-.02.28-.03.42a.5.5 0 00.17-.06c-.02.36.23.03.4-.05.2-.06.07-.03.22.05.17.1.14.1.27-.04.05-.03-.04-.1.1-.14.04-.02.08.1.12.12.12.02.17-.1.3-.15.06-.04.2-.02.25-.1.05-.06.05-.33.06-.4-.28-.07-.3-.12-.13-.44-.1-.05-.2 0-.32 0-.07.02-.12.05-.18.03-.1-.03-.05-.12-.18-.14" fill="#1d81a4" fill-rule="nonzero" opacity=".7"/></g></g><g transform="matrix(.7261 0 0 -.7261 28.75 35.28)"><clipPath id="B"><path d="M9.66 28.08h1.2v.7h-1.2z"/></clipPath><g clip-path="url(#B)"><path d="M10.83 28.72l-.13-.02c-.05 0-.1.06-.15.07-.06 0-.04.02-.1 0-.03 0-.06-.06-.1-.07-.07-.02-.14.07-.2.06-.12-.05 0-.2-.15-.23-.1-.03-.17.15-.27.1-.2-.14.1-.18.12-.23.05-.1-.06-.2.03-.26.1-.07.15.12.23.15.02-.06.05-.16.1-.2.1-.07.07.05.13.1.08.05.18.13.27.14.06 0 .3-.14.27.1 0 .08-.14 0-.14.1 0 .06.08.13.1.14" fill="#1d81a4" fill-rule="nonzero" opacity=".9"/></g></g><g transform="matrix(.7261 0 0 -.7261 28.75 35.28)"><clipPath id="C"><path d="M8.62 32.1h1.85v-1.92H8.62v1.92z"/></clipPath><g clip-path="url(#C)"><path d="M8.7 31.15c.4-.2-.1-.5.1-.75.12-.16.18.03.3-.04.16-.1.02-.27.2-.1.03.03-.05.13.1.07.07-.03.03-.17.15-.15.2.04-.17.4.1.18.1-.07.17-.23.3-.1.05.08.02.3-.1.37.08.14.23.08.35.14.1.07.1.18.16.3.04.1.14.22.1.38-.1.23-.15-.02-.26-.07-.08.07.16.75-.07.63-.08-.05-.03-.33-.16-.3-.07.03-.14.28-.18.33-.08-.08.04-.2-.03-.3-.15.34-.13-.08-.14-.15-.06 0-.1.02-.16.07-.07-.12.08-.48-.05-.5-.26-.07-.13.33-.12.4l-.13.02c.03.16.27.36.04.53v-.2c-.05 0-.1.06-.15.13-.02-.1 0-.2-.02-.3-.07-.27-.1-.02-.23-.06-.12-.05.03-.3 0-.37 0 0-.33-.13-.08-.15" fill="#1d81a4" fill-rule="nonzero" opacity=".9"/></g></g><g transform="matrix(.7261 0 0 -.7261 28.75 35.28)"><clipPath id="D"><path d="M8.76 31.8h.52v-1h-.52v1.03-.03z"/></clipPath><g clip-path="url(#D)"><path d="M9.08 31.8c.2-.07-.16-.3.08-.35-.02-.12-.08-.32-.2-.32-.04-.24.32.04.32-.27 0-.23-.36.07-.45.17-.18.23.02.7.23.77" fill="#1d81a4" fill-rule="nonzero" opacity=".8"/></g></g><g transform="matrix(.7261 0 0 -.7261 28.75 35.28)"><clipPath id="E"><path d="M10.1 30.98h1.55V29.9H10.1V31v-.02z"/></clipPath><g clip-path="url(#E)"><path d="M10.1 30.73c.05-.1.2-.15.27-.25.08-.12.12-.24.22-.3v.17c.17-.1.33-.5.52-.43 0 .05 0 .1-.03.14.08.02.4-.04.23.15.05.02.22 0 .26.02.1.1 0 .2-.1.2.02.06.17.2.15.26-.03.1-.17-.1-.2-.1-.02.03-.06.08-.06.12-.08-.05-.1-.17-.2-.2.02.23-.12.08-.2.08-.04.14.2.22.1.36-.07.15-.17-.14-.25-.16 0 .27-.17.13-.27.04l-.02.08c-.13.03-.17-.08-.27-.13-.08-.02-.15.03-.2-.04" fill="#1d81a4" fill-rule="nonzero" opacity=".9"/></g></g><g transform="matrix(.7261 0 0 -.7261 28.75 35.28)"><clipPath id="F"><path d="M8.65 30.54h1.64v-.77H8.65v.77z"/></clipPath><g clip-path="url(#F)"><path d="M10.15 29.88c-.04.18-.12-.06-.18-.07-.05 0-.05.08-.1.1h-.12c0 .08.1.2.16.16 0 .05-.06.13-.1.13-.1 0-.05-.04-.08-.1 0-.06.03-.1 0-.14-.06-.04-.13.02-.14.07-.1-.05-.12-.25-.23-.26-.1-.02-.18.2-.06.27.07.04.24-.05.3.07.08.18-.23.28-.2.04-.12.08-.14 0-.23 0-.05-.02-.1 0-.14 0-.05-.03-.08-.1-.15-.1-.07-.03-.25.04-.15.15.03.03.2.04.24.05-.04.12-.08.05-.14.08l-.16.1c-.08.23.22.04.26 0L9 30.4c.02-.02.1 0 .1 0 .04 0 .07-.1.12-.1.14-.04.16.2.28.2 0-.2.1.02.14.03.08 0 .05-.1.08-.12.06-.06 0-.03.1-.05.02 0 .05.03.1 0 .05-.04.03-.1.06-.14.03-.03.26-.08.1-.17.1-.02.2.04.2-.12 0-.1-.08-.13-.12-.03" fill="#1d81a4" fill-rule="nonzero" opacity=".85"/></g></g><g transform="matrix(.7261 0 0 -.7261 28.75 35.28)"><clipPath id="G"><path d="M9.32 30.54h.4v.4h-.4z"/></clipPath><g clip-path="url(#G)"><path d="M9.7 30.8c.04-.1-.03-.1-.06-.15-.03-.04-.07-.04-.1-.12 0 .16-.12.1-.2.06-.08.15.1.15.2.17-.06.06-.08.15 0 .16.08.02.08-.05.14-.1" fill="#1d81a4" fill-rule="nonzero" opacity=".9"/></g></g><g transform="matrix(.7261 0 0 -.7261 28.75 35.28)"><clipPath id="H"><path d="M8.16 29.66h.5v.76h-.5z"/></clipPath><g clip-path="url(#H)"><path d="M8.6 30.26c0-.17.1-.1 0-.26-.02-.04-.05.03-.06-.06-.02-.04.08-.06.06-.15-.05-.17-.15 0-.18 0-.08 0-.16-.16-.26-.14 0 .12.1.13.14.2.12.1.03.08 0 .22-.1-.02-.03.05-.04.1-.02.07-.1.12-.04.2.1.1.08-.07.1-.1.05-.06.1-.03.1-.15.07.03.1.1.17.13" fill="#1d81a4" fill-rule="nonzero" opacity=".9"/></g></g><g transform="matrix(.7261 0 0 -.7261 28.75 35.28)"><clipPath id="I"><path d="M8.57 29.98h.54v-.43h-.53v.43z"/></clipPath><g clip-path="url(#I)"><path d="M8.97 29.94c0-.15-.16-.1-.23-.06-.03-.23-.08-.07-.15-.18-.08-.1.02-.17.1-.14s.13.07.23.07c.07 0 .2 0 .18.1l-.03.03c.04.16.07.26-.12.2" fill="#1d81a4" fill-rule="nonzero" opacity=".85"/></g></g><g transform="matrix(.7261 0 0 -.7261 28.75 35.28)"><clipPath id="J"><path d="M9.4 29.24h.73v.6H9.4z"/></clipPath><g clip-path="url(#J)"><path d="M9.77 29.84c-.1 0-.15-.03-.24-.05-.12-.04-.23-.07-.05-.13.04 0 .13.02.14-.04.02-.06-.1-.08-.1-.14-.07-.18.12-.06.18-.04.02-.18.15-.22.28-.2l-.05.08c.04.02.15 0 .17.03.1.14-.1.1-.13.1-.14.04-.03.1-.07.16-.05.07-.18-.02-.25 0l.14.2h-.04" fill="#1d81a4" fill-rule="nonzero" opacity=".85"/></g></g><g transform="matrix(.7261 0 0 -.7261 28.75 35.28)"><clipPath id="K"><path d="M7.63 23.05h4.1v3.18h-4.1z"/></clipPath><g clip-path="url(#K)"><path d="M9.97 23.37c-.16-.1-.08-.3-.34-.32-.13.15.05.23.05.37 0 .07-.15.06-.1.13 0 .05.15.1.2.13l-.13.04-.12.1c-.2.12-.1.05-.38.03-.28-.03-.44.15-.54.34-.1.2-.14.17-.43.22-.22.03-.47.18-.54.34.1.06.24.08.36.1-.04.17-.15.1.07.3-.1.02-.4-.03-.4.1 0 .16.3.05.4.08.46.13-.45.12-.34.28.13.16.33 0 .43.02.17.03.18.16.28.13.07 0 .12-.2.17-.24.1-.1.16-.18.33-.2.03.06.02.14 0 .2.4 0 .25-.23.27-.4.08 0 .15.06.2.1.06-.08.1-.13.06-.22-.03-.1-.17-.13-.12-.23.12 0 .2.06.28.13.16-.14-.15-.26-.13-.33.04-.1.4.05.23-.18.27.04.3.1.2.28-.1.23-.1.2.2.27 0 .07.02.3.06.4.03.14.22.16.3 0 .24.16-.15.5-.17.66 0 .1.07.24.22.23.1 0 .24-.18.3-.23 0 .06.06.1.13.15.16-.13.15-.12.07-.3-.05-.13-.15-.2 0-.3 0 .12-.05.25.2.28.28.03.24-.13.2-.3 0-.1 0-.27-.12-.38-.1-.1-.3-.18-.44-.26.36.14.62-.1.2-.3.17-.1-.06-.13-.1-.24.1-.03.26.03.32 0 .14-.07.14-.28-.02-.33.12-.17.42.12.43-.15 0 0-.1-.04-.1-.08 0-.05.08-.1.07-.14a1.56 1.56 0 00-.3-.2c-.16-.07-.37-.1-.54-.18-.24-.1-.4-.22-.55 0-.13-.1-.33-.1-.32.05" fill="#1d81a4" fill-rule="nonzero" opacity=".9"/></g></g><g transform="matrix(.7261 0 0 -.7261 28.75 35.28)"><clipPath id="L"><path d="M4.25 21.77H8v2.5H4.25z"/></clipPath><g clip-path="url(#L)"><path d="M5.85 22.18c0-.07-.06-.13-.1-.15-.2.3-.13-.12-.17-.17-.12-.16-.27.05-.34.2-.03.08.07.12-.03.2 0 0-.17-.05-.2-.08 0-.02.08-.5-.08-.25-.06-.06-.12-.12-.2-.17-.06.06-.07.15-.07.23-.1-.04-.13-.15-.23-.07l-.15.3c-.07.2.07.3.16.44.07.13.1.1.04.25-.05.12-.16.15-.16.3 0 .03.1.22.14.25.1.12.14.13.26 0 0 .06.04.13.04.18.16-.25.27 0 .4.07.16.1.3.1.4.3.03.06 0 .23.1.25.13 0 .1-.18.13-.26.17-.3.17.13.33.2.1-.13.1-.56.23-.38.08-.08.13-.2.18-.3.1.05.03.4.18.37.23-.05.08-.45.1-.55.05-.2.1-.08.12 0 .07.1-.08.15.1.18.3.06.13-.25.28-.36.05-.03.16.08.25.02.05-.03.05-.13.1-.16.03-.03.07 0 .1-.05.13-.12.25-.24.27-.42 0-.1 0-.2-.08-.23-.1-.04-.14.08-.24.1-.17.02-.2-.12-.4-.03-.03.02-.06.12-.1.12-.04 0-.05-.06-.08-.05-.1 0-.04-.08-.2 0-.16.07-.3.27-.43.1.1-.14.27-.03.28-.25 0-.22-.16-.15-.27-.12-.06.02-.08.08-.16.1-.05 0-.1-.05-.14-.07-.18-.05-.22-.08-.34-.22-.03 0-.02.03-.04.04" fill="#1d81a4" fill-rule="nonzero" opacity=".9"/></g></g><g transform="matrix(.7261 0 0 -.7261 28.75 35.28)"><clipPath id="M"><path d="M4.48 22.18h3.1v1.65h-3.1z"/></clipPath><g clip-path="url(#M)"><path d="M5.9 23.06c.2-.18-.22-.52-.4-.37-.08.05-.18.43-.3.14-.02-.08.07-.14.04-.22-.05-.14-.06-.02-.16-.05-.15-.03-.14-.03-.22-.18-.07-.14-.1-.3-.3-.16-.26.23.2.56.3.7-.1.1-.3.1-.3.3-.03.22.2.15.35.18.08 0 .28.2.36.12.1-.1-.1-.2-.07-.32.25-.02.2.4.37.32.13-.07.12-.33.25-.24.1.06 0 .2 0 .3 0 .1-.04.1.06.16.05.04.13.08.2.07.08-.03.27-.18.3-.3 0-.1-.16-.12-.1-.3.2.02.18.27.32.3.26.05.03-.4.05-.48.2 0 .2.1.3.24.06.1 0 .17.12.06.06-.03.1-.2.1-.28.07.04.12.1.22.03.08-.05.04-.2.18-.2-.1-.07-.25-.16-.37-.2-.07-.02-.14 0-.22.02-.04.02-.07.1-.1.1-.07 0-.1-.04-.15-.03-.12.02-.32.03-.4.1-.07.08 0 .22-.15.28-.08.03-.16 0-.22-.04" fill="#1d81a4" fill-rule="nonzero" opacity=".75"/></g></g><g transform="matrix(.7261 0 0 -.7261 28.75 35.28)"><clipPath id="N"><path d="M13.9 20.53h2.12v2.2H13.9z"/></clipPath><g clip-path="url(#N)"><path d="M14 21.6c.43.23-.1.6.1.88.14.18.2-.04.33.04.2.13.04.3.24.12.05-.04-.05-.15.1-.1.1.05.06.2.2.18.22-.03-.2-.45.12-.2.1.08.18.27.3.1.1-.08.05-.35-.08-.4.08-.17.26-.1.4-.17.12-.1.12-.2.17-.34.04-.1.16-.25.1-.44-.08-.27-.16.02-.28.1-.1-.1.2-.9-.08-.74-.1.07-.04.4-.18.35-.1-.02-.18-.3-.2-.38-.1.1.04.24-.04.34-.16-.4-.15.1-.16.18-.07-.02-.13-.03-.2-.1-.07.16.1.57-.05.6-.28.08-.14-.4-.12-.47l-.14-.02c.02-.18.3-.42.04-.6v.22c-.08 0-.14-.08-.18-.15-.04.1 0 .23-.04.35-.08.3-.1 0-.26.06-.14.07.03.36 0 .43 0 0-.38.15-.1.18" fill="#1d81a4" fill-rule="nonzero" opacity=".9"/></g></g><g transform="matrix(.7261 0 0 -.7261 28.75 35.28)"><clipPath id="O"><path d="M14.06 20.84h.6v1.2h-.6z"/></clipPath><g clip-path="url(#O)"><path d="M14.42 20.85c.22.1-.18.37.1.42-.02.14-.1.36-.23.36-.06.28.36-.04.35.3 0 .27-.4-.07-.5-.18-.2-.26 0-.82.26-.9" fill="#1d81a4" fill-rule="nonzero" opacity=".8"/></g></g><g transform="matrix(.7261 0 0 -.7261 28.75 35.28)"><clipPath id="P"><path d="M14.7 21.85h.45v.47h-.45z"/></clipPath><g clip-path="url(#P)"><path d="M15.13 22c.06.12-.02.13-.06.18-.03.05-.08.05-.1.14-.03-.18-.15-.1-.24-.07-.1-.2.12-.2.2-.2-.04-.07-.07-.17.04-.2.08 0 .08.07.15.13" fill="#1d81a4" fill-rule="nonzero" opacity=".9"/></g></g><g transform="matrix(.7261 0 0 -.7261 28.75 35.28)"><clipPath id="Q"><path d="M11.3 21.26h3.2v1.87h-3.2z"/></clipPath><g clip-path="url(#Q)"><path d="M12.7 21.45c.34.46-.4.38-.55.4-.17 0-.24.1-.4.13-.14.02-.36-.22-.37.07.08.1.05.1.08.17-.07 0-.12.07-.17.1.22.25 1-.34.9.32.23-.1.13-.24.3-.07.04.03 0 .18.08.25.05.02.14-.16.14-.18.02.07.07.16.05.26.2.1.28-.06.23-.26.43-.1-.2.47.16.5.2 0 .12-.15.2-.3 0 .02-.13-.1-.06-.18.05-.04.1.05.13.02-.04.03.06.14.1.14.1 0 .07-.18.16-.18.17 0 .2.16.34.16.16 0 .46-.3.45-.55-.1 0-.23.04-.32.06.02 0 .04-.05.06-.1-.12-.1-.2.1-.32.2.03-.1.03-.22.05-.3-.07 0-.2 0-.28.06 0-.4-.5-.5-.45-.14a.66.66 0 01.03-.42c-.08.03-.14.03-.2.1-.08-.14-.33-.6-.5-.38l.12.1" fill="#1d81a4" fill-rule="nonzero" opacity=".9"/></g></g><g transform="matrix(.7261 0 0 -.7261 28.75 35.28)"><clipPath id="R"><path d="M11.75 28.36h1.5v.94h-1.5z"/></clipPath><g clip-path="url(#R)"><path d="M11.8 29.1c.04-.25.12-.32.3-.37.02 0 .1.03.13 0 .03 0 .05-.1.06-.1l.18-.12c.15-.08.18-.16.4-.14.04.02.08.06.14.06.07 0 .14-.06.22-.04 0 .07-.03.13-.08.18-.04.03-.14.06-.14.06-.08.1.03.26-.06.35-.14.13-.18-.16-.27-.18-.2-.04-.07.14-.13.24-.13.24-.15-.06-.2-.07-.2-.02-.1.26-.2.32-.02.02-.2-.04-.26-.05-.02-.02-.07.1-.12.03-.06-.06 0-.15.04-.18" fill="#1d81a4" fill-rule="nonzero" opacity=".9"/></g></g><g transform="matrix(.7261 0 0 -.7261 28.75 35.28)"><clipPath id="S"><path d="M8.35 27.5h3.7v2.2h-3.7z"/></clipPath><g clip-path="url(#S)"><path d="M10.83 28.65c0-.2 0-.32.2-.27 0-.1.2-.23.28-.25.15 0 .14.07.3.1.1.02.23-.05.35-.03.15.05.16.2-.03.18.25.37-.1.2-.23.34-.16.18.18.68-.15.46-.03.33-.36.25-.46.47-.05-.1-.26-.22-.35-.25-.1-.03-.38.03-.2-.18-.16-.15-.2.06-.33.12-.1.03-.12-.06-.2-.02-.05.03-.1.18-.12.22-.03-.06-.05-.1-.05-.2-.04.2-.18.14-.25 0-.1.1-.13.2-.2.3-.1.08-.14.08-.3.06 0 0 .07-.07.1-.08a.4.4 0 00-.2-.14c.05-.05.13-.07.2-.08-.07-.06-.15-.1-.22-.14.14-.1.33-.23.48-.3-.1-.14-.33-.06-.43 0-.05 0-.12.2-.23.1-.07-.06 0-.18.06-.24-.08-.13-.2-.06-.3-.22.25-.07.53.05.64-.32-.1-.1-.2.07-.35.1-.1 0-.13-.1-.15-.1-.07-.02-.1.03-.2.03.04-.04.1-.1.13-.15-.1-.03-.28.03-.28-.12.1-.06.04-.18.16-.25.08-.05.23-.02.3-.02.16 0 .57-.17.57.1.14 0 .23 0 .35.03.18.05.25.14.43.04 0-.18-.03-.5.2-.4.1.03.18.3.27.4.28.38-.03.07-.1.32-.02.13.24.3.3.4" fill="#1d81a4" fill-rule="nonzero" opacity=".9"/></g></g><g transform="matrix(.7261 0 0 -.7261 28.75 35.28)"><clipPath id="T"><path d="M9.1 28.1h2.76v1.8H9.1z"/></clipPath><g clip-path="url(#T)"><path d="M11.14 28.78l.08.14c.13-.08.1-.24.3-.17.05-.18.25-.02.34-.18a.8.8 0 00-.35-.22l-.3.07c-.03.02-.15.2-.17.23-.06.08-.08.2-.16.27-.07.12-.5.18-.48-.05 0-.15.23-.02.16-.28-.1-.34-.25 0-.36-.06-.07-.03-.03-.13-.13-.17-.1-.05-.1.08-.2-.03-.1-.1.05-.2-.1-.24-.17-.03-.1.1-.18.2-.02 0-.15.2-.14.2-.08.06-.14-.02-.24 0-.05.04-.16.15-.12.23.02.1.1.03.16.05.06 0 .2.13.24.1.12-.06.02-.22.1-.3.1-.13.33.04.42.1.15.08.3.13.23.38 0 .07-.18.14-.1.28.03.1.1.06.16.06.07 0 .16-.08.2-.02.07.06 0 .27 0 .32.02.08 0 .17.07.2.14.04.03-.23.1-.25.06-.05.1.1.1.14.1-.04.1-.15.1-.24.1-.05.2.03.3.1-.03-.13-.05-.22.04-.3.05-.04.18.05.22 0 .04-.04.07-.17.02-.23-.1-.12-.13.02-.2.06-.1.03-.4.23-.35-.02 0-.06.13-.17.16-.2.06-.08 0-.25.16-.17" fill="#1d81a4" fill-rule="nonzero" opacity=".85"/></g></g><g transform="matrix(.7261 0 0 -.7261 28.75 35.28)"><clipPath id="U"><path d="M8.36 21.96h.9v.57h-.9z"/></clipPath><g clip-path="url(#U)"><path d="M8.84 22.48c0-.04.05-.07.05-.13.1.07.3.26.37 0a.72.72 0 01-.33-.13c-.04-.05-.08-.15-.1-.2-.08-.04-.08 0-.14-.03 0 0-.24-.05-.27-.04-.13.06-.05.2.07.23-.1.16-.22.32.04.3.03 0 .03-.1.05-.1l.08.04c.05 0 .08.2.14 0" fill="#1d81a4" fill-rule="nonzero" opacity=".9"/></g></g><g transform="matrix(.7261 0 0 -.7261 28.75 35.28)"><clipPath id="V"><path d="M9.5 20.86h2v1.3h-2z"/></clipPath><g clip-path="url(#V)"><path d="M9.95 22.16c0-.24-.1-.25-.2-.3-.15-.06-.2-.03-.26-.25.1-.02.2.03.3-.06.1-.1.03-.22.17-.3.07-.05.17-.04.25-.05.1-.03.22-.13.32-.12.1.02.1.2.23.1.06-.04.04-.13.08-.17.05-.03.1-.03.16-.08.2-.14.43-.07.5.28-.15.03-.35-.1-.5-.06-.24.06-.05.4-.33.36-.12-.02-.48-.24-.53.06-.06.33.4-.2.34.22-.3-.02-.1.2-.1.36-.1.06-.26-.06-.38 0" fill="#1d81a4" fill-rule="nonzero" opacity=".85"/></g></g><g transform="matrix(.7261 0 0 -.7261 28.75 35.28)"><clipPath id="W"><path d="M7.83 21h2.12v1.36H7.83z"/></clipPath><g clip-path="url(#W)"><path d="M8.56 21.02c.12-.08.14.06.25.1.08.05.15.02.23.04.14.03.24.1.38.1.13 0 .33-.13.45-.06.28.16-.1.2-.2.24 0 .17.16.28.13.48-.05 0-.12 0-.17-.06-.04.15.02.27.04.4a.44.44 0 01-.17-.06c0 .34-.22.03-.38-.04-.18-.08-.08-.05-.22.03-.16.07-.14.07-.26-.04-.04-.05.04-.12-.08-.15-.05 0-.08.1-.13.13-.1 0-.16-.1-.27-.15-.06-.03-.2 0-.24-.1-.06-.05-.06-.3-.07-.37.27-.05.28-.1.13-.4.1-.03.2 0 .3 0 .07.03.12.06.17.04.1-.03.05-.12.17-.13" fill="#1d81a4" fill-rule="nonzero" opacity=".7"/></g></g><g><g transform="matrix(1.24455 0 0 -1.24455 7.46 46.91)"><clipPath id="X"><path d="M5.08 26h4v2.68h-4z"/></clipPath><g clip-path="url(#X)"><path d="M7.37 26.45c.02-.08.06-.13.12-.15.2.32.12-.13.17-.18.12-.18.28.04.36.2.03.1-.08.13.03.2.02.03.18-.04.2-.07.02-.02-.07-.53.1-.26l.2-.2c.08.07.1.16.1.25.1-.03.13-.15.24-.06l.16.32c.07.2-.08.3-.18.46-.07.13-.1.1-.04.26.05.13.18.16.18.33 0 .02-.12.22-.15.25-.1.14-.15.14-.27 0 0 .07-.04.14-.05.2-.17-.27-.28 0-.4.08-.2.1-.34.1-.44.3-.03.08 0 .26-.1.28-.14 0-.1-.2-.15-.28-.18-.32-.17.13-.34.2-.1-.13-.08-.6-.24-.4-.08-.1-.13-.22-.2-.33-.08.07 0 .43-.17.4-.26-.04-.1-.46-.12-.57-.05-.2-.1-.08-.13 0-.07.1.1.16-.1.2-.34.05-.13-.28-.3-.4-.06-.03-.17.1-.26.03-.07-.03-.06-.13-.1-.16-.05-.04-.1-.02-.14-.05-.13-.12-.26-.25-.27-.45-.03-.1 0-.2.06-.24.12-.04.16.1.26.1.18.03.22-.12.43-.02.04.02.06.13.1.14.05 0 .06-.06.1-.06.1 0 .04-.07.2 0 .18.1.32.3.47.12-.1-.15-.3-.03-.3-.27-.02-.23.16-.16.3-.13.05.03.07.1.16.1.05 0 .1-.04.15-.07.18-.04.23-.08.36-.22.02 0 0 .03.03.04" fill="#1d81a4" fill-rule="nonzero" opacity=".9"/></g></g><g transform="matrix(1.24455 0 0 -1.24455 7.46 46.91)"><clipPath id="Y"><path d="M5.53 28.2h3.3v-1.75h-3.3v1.76-.01z"/></clipPath><g clip-path="url(#Y)"><path d="M7.32 27.4c-.23-.2.24-.57.42-.4.1.06.2.46.3.15.04-.08-.04-.15 0-.23.04-.14.04-.02.15-.05.15-.04.14-.04.23-.2.07-.13.1-.32.3-.15.3.24-.2.6-.32.75.13.1.36.1.36.3.02.25-.24.17-.38.2-.08 0-.3.2-.38.13-.1-.1.1-.2.07-.34-.27-.02-.2.43-.4.35-.13-.07-.13-.35-.26-.26-.1.07 0 .23 0 .3 0 .14.04.12-.06.2-.05.04-.14.08-.2.07-.1-.02-.3-.2-.32-.3-.02-.13.16-.14.1-.32-.2 0-.2.28-.35.3-.27.06-.03-.4-.05-.5-.2 0-.22.1-.32.26-.06.1 0 .2-.13.07-.06-.03-.1-.22-.1-.3-.08.05-.13.1-.23.05-.1-.08-.06-.22-.2-.24.1-.06.25-.16.38-.2.1-.02.17 0 .25.03.04.02.07.1.12.1.05 0 .1-.04.14-.03.13.03.34.04.42.12.08.08 0 .23.16.3.08.03.17 0 .24-.05" fill="#1d81a4" fill-rule="nonzero" opacity=".75"/></g></g><path d="M21.5 19.06s-1.42-.45-1.83-.53a10.7 10.7 0 01-1.62-.65c-.37-.18-2.03-1.37-2.03-1.37l2.12 1.22c.21.12.37.12.37.12s-.54-.42-.87-.77c-.3-.35-.74-.62-1.12-1-.35-.4-.52-.74-.52-.74l1.72 1.62c.37.37.87.84 1.12 1.06.2.18 2.76.87 2.76.87l-.09.15-.01.02z" fill="#1d81a4" fill-rule="nonzero"/><path d="M21.3 18.97l2.05-.74s1.44-1.04 1.67-1.37c.25-.34.6-1.16.6-1.16s-1.07 1.66-2.34 2.34c-1.28.7-2.2.75-2.2.75l.26.18h-.04zM21.03 15l-.75-1.33s-1-.78-1.3-.87c-.3-.1-1.01-.12-1.01-.12s1.46.33 2.15 1.12c.67.74.77 1.42.77 1.42l.12-.23.02.01z" fill="#1d81a4" fill-rule="nonzero"/><path d="M21.1 19.8s1.56-.3 2.24-.64c.69-.34 1-.75 1.3-1.1.3-.34.94-1.34.94-1.34s-1.08 1.18-1.3 1.46c-.23.3-.6.62-1.04.77-.45.12-2.11.68-2.11.68v.19l-.03-.01z" fill="#1d81a4" fill-rule="nonzero"/><path d="M20.98 18.12s1.69-1.15 1.91-1.12c.25 0 .28.28.55.2.28-.06 2.74-1.09 2.81-1.04.07.04-2.78 1.12-2.7 1.2.1.1 1.09.5 1.04.5-.04.04-.97-.2-1.27-.5-.3-.24-.28-.2-.53-.14-.24.05-1.76 1.03-1.76 1.03l-.05-.15v.02z" fill="#1d81a4" fill-rule="nonzero"/><path d="M21.2 13.77s0 7.84.09 12.57c.05 2.67.05 4.78.06 4.9.04.38 0 1.25.1 1.4.12.16.12.1.2.16.06.06.22.21.1.25-.13.02-.37-.12-.54.06-.16.19-.12.33-.25.33-.12 0-.02-.13-.17-.13h-.34c-.14 0-.08-.2-.2-.25-.1-.07.07-.25.13-.37.02-.13.15-.59.15-.9 0-.32.1-.7.07-1 0-.17.13-6.3.15-10.82 0-2.65.09-3.76.08-4.52 0-.74.37-1.65.37-1.65" fill="#1d81a4" fill-rule="nonzero"/><g transform="matrix(1.24455 0 0 -1.24455 7.46 46.91)"><clipPath id="Z"><path d="M12.16 26.63h3.25V24.1h-3.24v2.53z"/></clipPath><g clip-path="url(#Z)"><path d="M13.55 24.36c.13-.08.07-.23.28-.25.1.13-.04.2-.04.3 0 .06.1.05.07.1 0 .05-.13.1-.17.1l.1.04c.02 0 .1.07.1.08.17.1.1.04.3.02.23-.02.36.12.43.28.1.17.13.14.36.18.16.02.36.14.4.27a.67.67 0 01-.27.07c.02.14.1.1-.06.23.07.03.32 0 .32.1-.02.12-.25.03-.33.05-.37.1.35.1.26.23-.1.13-.25 0-.34 0-.14.04-.15.14-.23.12-.05 0-.1-.16-.13-.2a.34.34 0 00-.26-.15c-.02.05 0 .1 0 .15-.3 0-.2-.17-.22-.3-.06 0-.1.03-.15.07-.03-.07-.06-.1-.03-.18.02-.08.13-.1.1-.2-.1 0-.18.07-.24.12-.12-.1.13-.2.1-.27-.03-.06-.32.06-.18-.13-.22.04-.23.08-.17.23.08.2.08.16-.15.22 0 .05 0 .24-.04.3-.05.13-.2.15-.25.02-.2.12.1.4.12.52 0 .08-.05.18-.17.17-.08 0-.2-.14-.23-.18 0 .05-.06.1-.1.12-.14-.1-.14-.1-.07-.23.05-.1.12-.16 0-.25 0 .1.04.2-.16.2-.22.04-.2-.1-.17-.22.03-.1.02-.22.1-.3.08-.08.26-.14.36-.2-.3.1-.5-.1-.18-.24-.13-.08.06-.1.1-.2-.08 0-.22.03-.27 0-.1-.04-.1-.2.02-.25-.1-.15-.33.08-.34-.13 0 0 .07-.03.07-.06.02-.03-.05-.08-.05-.1.02-.03.2-.14.24-.15.13-.07.3-.1.43-.15.2-.08.33-.18.44-.02.1-.07.25-.07.25.06" fill="#1d81a4" fill-rule="nonzero" opacity=".9"/></g></g><g transform="matrix(1.24455 0 0 -1.24455 7.46 46.91)"><clipPath id="aa"><path d="M10.58 23.77h2.1v1.7h-2.1z"/></clipPath><g clip-path="url(#aa)"><path d="M12.7 23.86c0 .12-.16.05-.18.14 0 .08.1.1.1.18 0 0-.1.02-.1.07 0 .03.07.06.07.1 0 .07 0 .16-.13.18-.03-.1-.1-.08-.13 0 0 .08.13.12 0 .16 0-.02 0-.03-.02-.04-.03.04.13.3-.1.16 0 .04.03.13 0 .16-.06.05-.17 0-.24.04 0-.07.06-.26 0-.32-.15-.18-.18.17-.32.14.02-.07-.03-.2-.1-.08-.04.05 0 .13 0 .2v.12c-.1.1-.07.04-.12-.02-.03-.04.03-.16-.1-.13-.14.02-.05.18-.03.22.06.1.1.1 0 .17-.02.05-.1.1-.2.07-.03.08-.18.1-.25 0-.03-.04.03-.17.04-.2-.06-.02-.1-.05-.16-.06l.1-.1c-.03 0-.07-.05-.12-.05l.1-.1c-.08-.03-.34-.1-.2-.2.08-.07.26.02.37-.02-.05-.05-.1-.12-.1-.17l.22.03c-.13-.24.25-.1.3-.3-.13-.03-.18.1-.36.05.02-.03 0-.08 0-.1-.02 0-.08-.04-.12-.04.03 0 .05-.04.06-.06-.07-.02-.15-.04-.2-.1.08-.05.16 0 .22-.05.03-.02.02-.1.02-.14.1-.02.16 0 .2.08.18-.1.15-.02.3.08.07-.08-.1-.27.13-.17.14.04.18.28.33.22.06-.04 0-.12.07-.15.06-.02.1.04.1.04-.02.02.1-.02.1-.02-.02 0 .06-.05.07-.05h.13c.07 0 .14-.05.2.02" fill="#1d81a4" fill-rule="nonzero" opacity=".9"/></g></g><g transform="matrix(1.24455 0 0 -1.24455 7.46 46.91)"><clipPath id="ab"><path d="M9.44 24.87h1.1v.63h-1.1z"/></clipPath><g clip-path="url(#ab)"><path d="M9.48 25.45l.12-.02c.05 0 .1.06.13.07h.1c.03 0 .06-.06.1-.07.06 0 .12.07.17.06.1-.06 0-.2.14-.23.08-.02.16.15.25.1.16-.13-.1-.16-.12-.2-.05-.1.06-.2-.03-.26-.1-.05-.14.13-.2.15-.02-.04-.04-.14-.08-.16-.1-.08-.07.03-.13.07a.67.67 0 01-.25.13c-.06 0-.27-.13-.26.08.02.08.14 0 .14.1 0 .05-.08.12-.1.14" fill="#1d81a4" fill-rule="nonzero" opacity=".9"/></g></g><g transform="matrix(1.24455 0 0 -1.24455 7.46 46.91)"><clipPath id="ac"><path d="M6.15 23.43h2.98v2H6.15z"/></clipPath><g clip-path="url(#ac)"><path d="M7.86 23.76c0-.05.05-.1.1-.1.14.23.1-.1.12-.15.1-.12.2.05.27.16.02.07-.06.1.02.16.02.02.14-.03.16-.05 0-.02-.06-.4.07-.2.05-.05.1-.1.15-.13.05.04.07.1.07.17.08 0 .1-.1.18-.03l.12.24c.05.16-.06.23-.13.36-.07.1-.1.08-.04.2.03.1.13.1.13.24-.02 0-.1.16-.12.2-.07.1-.1.1-.2 0 0 .04-.04.1-.04.13-.12-.2-.2 0-.3.06-.14.08-.25.06-.33.22-.02.05 0 .2-.07.2-.1 0-.08-.14-.1-.2-.14-.24-.14.1-.26.15-.1-.1-.07-.45-.2-.3-.05-.07-.1-.17-.13-.25-.07.05-.02.33-.13.3-.18-.03-.06-.35-.07-.43-.05-.16-.08-.06-.1-.02-.05.1.06.13-.08.16-.25.04-.1-.2-.22-.3-.05 0-.13.07-.2.03-.04-.02-.04-.1-.07-.12-.03-.03-.07 0-.1-.04-.1-.08-.2-.17-.2-.32 0-.07 0-.16.06-.18.08-.03.1.06.2.08.12.02.15-.1.3-.02.04 0 .05.1.08.1.04 0 .05-.05.07-.05.08 0 .03-.04.16.02s.23.2.34.08c-.08-.1-.2-.02-.23-.2 0-.18.13-.12.22-.1.06.02.07.07.13.08.03 0 .07-.04.1-.05a.45.45 0 00.27-.17c.02 0 .02 0 .03.02" fill="#1d81a4" fill-rule="nonzero" opacity=".9"/></g></g><g transform="matrix(1.24455 0 0 -1.24455 7.46 46.91)"><clipPath id="ad"><path d="M6.5 23.78h2.45v1.3H6.5z"/></clipPath><g clip-path="url(#ad)"><path d="M7.83 24.46c-.17-.14.17-.4.3-.3.07.06.15.36.24.13.02-.07-.04-.12-.02-.18.04-.1.04-.02.12-.04.12-.03.12-.03.18-.15.06-.1.08-.24.23-.12.22.2-.15.46-.24.57.1.08.25.08.26.24 0 .18-.18.13-.3.15-.04 0-.2.16-.27.1-.07-.1.08-.16.05-.26-.2-.02-.15.3-.3.25-.1-.06-.1-.27-.2-.2-.07.05 0 .17 0 .23 0 .1.03.08-.04.14a.28.28 0 01-.15.06c-.08-.03-.23-.15-.25-.25 0-.08.12-.1.08-.22-.16 0-.15.2-.26.24-.2.04-.03-.3-.04-.38-.16 0-.17.08-.24.2-.06.06 0 .13-.1.05-.05-.02-.08-.17-.07-.22-.07.03-.1.07-.2.03-.06-.05-.03-.15-.14-.17.08-.05.18-.12.28-.15.07-.02.13 0 .2.02.02 0 .04.06.08.07.04 0 .07-.03.1-.02.1.02.26.03.32.08.06.07 0 .18.12.23.06.03.13 0 .17-.04" fill="#1d81a4" fill-rule="nonzero" opacity=".75"/></g></g><g transform="matrix(1.24455 0 0 -1.24455 7.46 46.91)"><clipPath id="ae"><path d="M9.82 26.78h1.68v1.76H9.82z"/></clipPath><g clip-path="url(#ae)"><path d="M11.43 27.67c-.35-.17.08-.46-.1-.7-.1-.13-.15.04-.26-.02-.15-.1-.03-.25-.18-.1-.05.03.03.12-.1.07-.07-.03-.03-.15-.14-.13-.18.02.16.34-.1.15-.1-.06-.15-.22-.26-.1-.06.08-.03.3.07.34-.06.12-.2.07-.3.12-.1.07-.1.16-.15.27-.04.1-.14.2-.1.34.08.22.14 0 .24-.06.07.06-.15.7.06.58.08-.06.03-.3.15-.28.06.02.13.25.16.3.07-.08-.04-.2.02-.28.13.3.12-.07.13-.14.05 0 .1.03.15.07.06-.12-.08-.44.05-.47.23-.06.12.3.1.37l.12.02c-.02.15-.25.33-.04.5v-.2c.06 0 .1.06.15.13.04-.1 0-.2.03-.3.07-.22.1 0 .2-.03.13-.05 0-.3.02-.34 0 0 .3-.1.06-.14" fill="#1d81a4" fill-rule="nonzero" opacity=".9"/></g></g><g transform="matrix(1.24455 0 0 -1.24455 7.46 46.91)"><clipPath id="af"><path d="M10.9 28.27h.47v-.94h-.46v.94z"/></clipPath><g clip-path="url(#af)"><path d="M11.1 28.27c-.18-.07.13-.3-.1-.33.03-.1.1-.28.2-.3.03-.2-.3.05-.3-.24 0-.2.33.07.4.16.17.2 0 .65-.2.7" fill="#1d81a4" fill-rule="nonzero" opacity=".8"/></g></g><g transform="matrix(1.24455 0 0 -1.24455 7.46 46.91)"><clipPath id="ag"><path d="M8.74 26.54h1.42v.98H8.74z"/></clipPath><g clip-path="url(#ag)"><path d="M10.16 27.3c-.06-.1-.18-.15-.25-.24-.07-.1-.1-.23-.2-.3v.18c-.16-.1-.3-.44-.5-.4.02.05 0 .1.04.13-.07.02-.38-.04-.2.14-.06.02-.2 0-.25.02-.1.08-.03.2.07.18-.02.06-.15.18-.13.24.03.1.15-.1.18-.1 0 .03.05.08.05.1.07-.03.1-.14.17-.16 0 .2.1.07.2.07.02.13-.18.2-.12.33.08.14.17-.13.25-.14 0 .24.15.1.24.03l.03.07c.12.03.16-.07.25-.12.07-.02.12.03.17-.03" fill="#1d81a4" fill-rule="nonzero" opacity=".9"/></g></g><g transform="matrix(1.24455 0 0 -1.24455 7.46 46.91)"><clipPath id="ah"><path d="M9.98 26.4h1.5v.7h-1.5z"/></clipPath><g clip-path="url(#ah)"><path d="M10.1 26.5c.04.17.1-.04.17-.05.05 0 .05.06.08.07h.13c0 .08-.1.18-.16.15 0 .05.07.12.12.12.08 0 .04-.03.06-.1 0-.05-.03-.1 0-.12.05-.04.1.02.13.07.1-.05.1-.24.2-.24s.17.2.06.25c-.08.04-.24-.04-.3.07-.06.15.22.25.2.03.1.07.12 0 .2-.02.05 0 .1.02.13 0 .05 0 .08-.08.14-.08.06-.02.23.04.14.14-.02.03-.17.04-.2.04.02.12.05.06.12.08l.14.08c.07.22-.2.05-.24.03-.02 0-.04-.05-.06-.06l-.08.02c-.05-.03-.07-.1-.12-.1-.13-.05-.15.17-.26.17 0-.18-.1.02-.13.03-.07 0-.05-.07-.07-.1-.05-.07 0-.04-.08-.06-.03 0-.06.03-.1 0-.04-.04-.03-.1-.06-.13-.03-.02-.24-.08-.1-.15-.07-.02-.18.03-.18-.12 0-.1.08-.12.1-.03" fill="#1d81a4" fill-rule="nonzero" opacity=".85"/></g></g><g transform="matrix(1.24455 0 0 -1.24455 7.46 46.91)"><clipPath id="ai"><path d="M10.5 27.48h.36v-.38h-.35v.38z"/></clipPath><g clip-path="url(#ai)"><path d="M10.52 27.36c-.04-.1.02-.1.05-.14.03-.04.06-.04.1-.12 0 .15.1.1.18.07.07.14-.1.14-.18.16.05.05.07.13 0 .14-.1.02-.1-.05-.13-.1" fill="#1d81a4" fill-rule="nonzero" opacity=".9"/></g></g><g transform="matrix(1.24455 0 0 -1.24455 7.46 46.91)"><clipPath id="aj"><path d="M11.47 26.3h.46v.7h-.46z"/></clipPath><g clip-path="url(#aj)"><path d="M11.52 26.85c0-.15-.1-.1 0-.23.02-.04.04.03.06-.05 0-.04-.08-.06-.06-.14.04-.14.14.02.17.02.07 0 .14-.16.23-.14 0 .1-.08.12-.14.18-.1.1-.03.08 0 .2.1 0 .02.06.04.1.02.07.08.12.03.2-.08.1-.08-.07-.1-.1-.03-.06-.1-.03-.08-.15-.07.04-.1.1-.17.12" fill="#1d81a4" fill-rule="nonzero" opacity=".9"/></g></g><g transform="matrix(1.24455 0 0 -1.24455 7.46 46.91)"><clipPath id="ak"><path d="M11.05 26.2h.5v.4h-.5z"/></clipPath><g clip-path="url(#ak)"><path d="M11.2 26.57c-.02-.14.13-.1.2-.06.02-.2.07-.06.13-.15.07-.1-.03-.16-.1-.13-.07.02-.1.06-.2.06-.07 0-.2 0-.18.1.02 0 .03 0 .05.02-.04.14-.07.24.1.2" fill="#1d81a4" fill-rule="nonzero" opacity=".85"/></g></g><g transform="matrix(1.24455 0 0 -1.24455 7.46 46.91)"><clipPath id="al"><path d="M11.04 26.45h2.54v1.5h-2.54z"/></clipPath><g clip-path="url(#al)"><path d="M12.45 27.8c-.26-.37.3-.3.44-.32.13 0 .2-.08.3-.1.12-.02.3.17.3-.06-.06-.07-.04-.07-.06-.14.05 0 .1-.05.14-.07-.2-.2-.8.28-.73-.25-.2.07-.1.2-.24.05-.02-.02 0-.14-.05-.2-.04 0-.1.13-.1.15-.02-.05-.07-.12-.05-.2-.16-.08-.23.04-.18.2-.34.1.16-.37-.13-.4-.18 0-.1.12-.16.24 0-.02.1.06.04.13-.04.04-.07-.03-.1 0 .03-.03-.06-.12-.08-.12-.1 0-.06.15-.13.15-.14 0-.16-.12-.28-.12-.14 0-.38.24-.36.44.07 0 .16-.04.24-.06l-.05.1c.1.07.17-.07.26-.16-.04.07-.04.18-.06.23.06 0 .16 0 .23-.04 0 .32.4.4.35.1.03.13 0 .26-.03.34.06 0 .1 0 .16-.07.06.1.25.48.38.3l-.1-.1" fill="#1d81a4" fill-rule="nonzero" opacity=".9"/></g></g><g transform="matrix(1.24455 0 0 -1.24455 7.46 46.91)"><clipPath id="am"><path d="M12.3 23.37h1.18v.75H12.3z"/></clipPath><g clip-path="url(#am)"><path d="M13.44 23.95c-.03-.18-.1-.24-.22-.28-.03 0-.1.03-.1 0-.04 0-.05-.08-.06-.1-.04 0-.1-.04-.15-.07-.1-.07-.14-.14-.3-.12-.05 0-.07.05-.12.05-.06 0-.1-.05-.18-.04 0 .05.03.1.07.13l.1.05c.07.1-.02.2.06.28.1.1.13-.13.2-.14.15-.02.06.1.1.2.1.2.12-.05.16-.06.15 0 .08.2.14.26.03.02.17-.03.22-.04.02 0 .06.07.1.03.05-.04 0-.1-.03-.14" fill="#1d81a4" fill-rule="nonzero" opacity=".9"/></g></g><path d="M25.16 17.54c0 .19 0 .3-.2.25 0 .13-.21.25-.29.25-.12.03-.12-.06-.27-.1-.1 0-.21.06-.34.04-.15-.05-.16-.2.03-.18-.25-.34.1-.17.22-.32.16-.17-.17-.67.15-.45.03-.33.35-.25.45-.47.05.09.25.22.35.25.09.04.37-.03.2.17.15.15.2-.05.32-.12.1 0 .13.07.2.02.05-.02.09-.17.12-.2 0 .03.04.1.04.17.03-.2.16-.13.25 0 .09-.08.13-.2.2-.29.09-.07.12-.07.29-.05-.03 0-.08.06-.1.09.03.07.12.12.18.12-.05.06-.12.08-.18.09.05.06.12.09.2.12-.15.13-.34.25-.49.31.13.13.32.07.44 0 .05 0 .12-.18.22-.1.06.07 0 .18-.06.25.07.13.21.04.3.2-.25.08-.53-.03-.63.33.1.08.2-.1.34-.1.08 0 .12.08.12.08.1 0 .13-.03.2-.03l-.12.15c.1.02.27-.04.27.12-.1.04-.02.16-.15.25-.06.02-.22 0-.28 0-.15 0-.56.17-.56-.1-.13 0-.25 0-.35-.03-.17-.06-.25-.14-.42-.05 0 .18.02.5-.2.42-.13-.07-.19-.33-.25-.44-.3-.37 0-.06.06-.31.04-.13-.21-.3-.25-.37" fill="#1d81a4" fill-rule="nonzero" opacity=".9"/><g transform="matrix(1.24455 0 0 -1.24455 7.46 46.91)"><clipPath id="an"><path d="M13.4 23.17h2.2v1.43h-2.2z"/></clipPath><g clip-path="url(#an)"><path d="M13.97 23.7l-.06.12c-.1-.07-.08-.2-.22-.14-.05-.14-.2 0-.28-.14.07-.08.2-.16.28-.17.02 0 .24.04.25.06.02 0 .1.15.13.17.05.07.06.15.12.22.06.1.4.14.38-.04 0-.12-.18 0-.13-.22.1-.26.2 0 .28-.04.07-.02.04-.1.12-.14.07-.03.1.07.17-.02.05-.07-.06-.15.07-.2.12 0 .07.08.13.16 0 0 .1.18.1.16.07.05.1 0 .2.02.04.02.12.1.1.17-.02.07-.1.02-.14.04l-.18.1c-.1-.06-.02-.2-.08-.24-.08-.1-.27.02-.34.07-.12.06-.23.1-.18.3 0 .06.14.12.08.22-.03.07-.08.05-.13.05s-.12-.06-.16 0c-.05.03 0 .2 0 .24 0 .06 0 .13-.05.16-.1.03-.03-.18-.07-.2-.06-.04-.1.08-.1.1-.06 0-.07-.1-.06-.17-.1-.04-.17.02-.25.07.02-.1.03-.17-.03-.23-.04-.03-.14.04-.17 0-.04-.03-.06-.14-.02-.18.08-.1.1 0 .17.03.07.04.3.2.27 0 0-.05-.1-.14-.14-.17-.05-.06 0-.2-.12-.13" fill="#1d81a4" fill-rule="nonzero" opacity=".85"/></g></g><g transform="matrix(1.24455 0 0 -1.24455 7.46 46.91)"><clipPath id="ao"><path d="M14.05 25.66h.73v-.45h-.73v.46-.01z"/></clipPath><g clip-path="url(#ao)"><path d="M14.4 25.62c0-.03-.04-.05-.04-.1-.1.06-.24.2-.3 0 .08 0 .2-.03.25-.1.05-.04.08-.12.1-.16.06-.03.06 0 .1-.02 0 0 .2-.03.23-.02.1.04.03.15-.06.17.07.13.17.26-.04.24-.02 0-.02-.07-.04-.07l-.08.02c-.04 0-.06.15-.1 0" fill="#1d81a4" fill-rule="nonzero" opacity=".9"/></g></g><g transform="matrix(1.24455 0 0 -1.24455 7.46 46.91)"><clipPath id="ap"><path d="M12.28 25.37h1.6v-1.04h-1.6v1.04z"/></clipPath><g clip-path="url(#ap)"><path d="M13.52 25.37c0-.2.06-.2.16-.23.1-.05.15-.03.2-.2-.08-.03-.16 0-.24-.06-.08-.08-.03-.18-.14-.25-.06-.03-.13-.02-.2-.03-.07 0-.18-.1-.25-.08-.08 0-.08.15-.2.08-.03-.04 0-.1-.05-.14-.04-.04-.08-.04-.12-.07-.16-.13-.34-.07-.4.2.12.03.28-.07.4-.04.2.05.04.3.27.28.1 0 .37-.18.42.05.05.26-.33-.17-.27.17.22-.02.08.15.07.3.1.03.2-.06.3-.02" fill="#1d81a4" fill-rule="nonzero" opacity=".85"/></g></g><g transform="matrix(1.24455 0 0 -1.24455 7.46 46.91)"><clipPath id="aq"><path d="M13.52 24.45h1.68v1.08h-1.68z"/></clipPath><g clip-path="url(#aq)"><path d="M14.62 24.47c-.1-.07-.12.05-.2.08-.06.04-.1 0-.18.03-.1.02-.18.08-.3.08-.1 0-.25-.1-.34-.05-.23.14.08.17.16.2 0 .14-.13.22-.1.38.03 0 .1 0 .12-.04.04.1 0 .2-.02.3.03 0 .1 0 .14-.04 0 .27.18.03.3-.03.14-.06.05-.03.16.02.14.06.12.06.2-.03.05-.03-.02-.1.08-.12.03 0 .06.1.1.1.1 0 .13-.07.22-.12.05-.02.15 0 .2-.07.03-.05.03-.25.04-.3-.22-.05-.23-.1-.1-.33-.1-.03-.17 0-.25 0-.05.02-.08.05-.13.03-.08-.02-.04-.1-.13-.1" fill="#1d81a4" fill-rule="nonzero" opacity=".7"/></g></g><g transform="matrix(1.24455 0 0 -1.24455 7.46 46.91)"><clipPath id="ar"><path d="M10.12 25.93h.68v.55h-.68z"/></clipPath><g clip-path="url(#ar)"><path d="M10.46 26.48c.08 0 .13-.03.2-.06.12-.02.22-.05.06-.1-.04 0-.12.02-.14-.04 0-.05.1-.07.1-.12.07-.17-.1-.06-.16-.03-.02-.17-.14-.2-.26-.2l.05.1c-.03 0-.13-.02-.15 0-.1.14.1.1.12.1.13.04.03.1.07.16.04.05.16-.04.22 0-.04.05-.1.1-.13.16 0 0 .03 0 .03.02" fill="#1d81a4" fill-rule="nonzero" opacity=".85"/></g></g><g transform="matrix(1.24455 0 0 -1.24455 7.46 46.91)"><clipPath id="as"><path d="M11.94 29.5h4.36v-3.38h-4.36v3.4-.02z"/></clipPath><g clip-path="url(#as)"><path d="M13.8 26.46c.18-.1.1-.3.38-.34.14.16-.06.25-.06.4 0 .07.16.06.12.14-.02.05-.18.1-.23.13l.16.03s.1.1.12.1c.2.14.12.07.4.04.3-.02.47.16.58.37.1.23.16.2.47.25.24.02.5.17.57.35-.1.06-.25.08-.38.1.03.2.15.13-.08.3.1.04.42 0 .43.12 0 .18-.33.06-.43.1-.5.13.47.12.36.3-.14.16-.35 0-.46 0-.18.04-.2.18-.3.15-.07 0-.12-.2-.17-.26-.1-.1-.17-.2-.35-.2-.03.05-.02.14 0 .2-.4 0-.27-.24-.3-.42-.07 0-.15.06-.2.1-.06-.08-.1-.13-.06-.23.03-.1.18-.13.12-.24a.43.43 0 00-.3.14c-.17-.15.17-.28.14-.36-.05-.1-.44.06-.25-.2-.3.06-.3.12-.22.32.1.25.1.2-.22.3.03.06 0 .3-.05.4-.05.16-.25.18-.32.02-.27.16.15.54.17.7 0 .1-.08.24-.24.23-.1 0-.26-.18-.3-.24-.02.07-.1.13-.17.16-.16-.14-.16-.12-.06-.3.05-.15.15-.22 0-.35-.02.15.04.28-.22.3-.3.05-.25-.12-.23-.3.03-.12.03-.3.14-.4.1-.1.34-.2.48-.3-.4.17-.67-.1-.24-.3-.18-.1.07-.13.12-.26-.1 0-.3.05-.35.02-.14-.07-.15-.3.02-.35-.14-.18-.45.12-.46-.16 0 0 .1-.03.1-.07 0-.06-.08-.12-.07-.16.02-.03.25-.17.3-.2.2-.08.42-.12.6-.2.25-.1.43-.23.58 0 .15-.1.36-.1.35.06" fill="#1d81a4" fill-rule="nonzero" opacity=".9"/></g></g><g transform="matrix(1.24455 0 0 -1.24455 7.46 46.91)"><clipPath id="at"><path d="M14.48 27.6h.97v.6h-.97z"/></clipPath><g clip-path="url(#at)"><path d="M14.94 28.16c0-.05-.05-.08-.05-.14-.15.08-.34.28-.42 0 .1-.02.26-.05.34-.14.06-.05.1-.16.13-.2.08-.06.08-.02.14-.04 0 0 .24-.05.28-.03.14.07.05.2-.08.24.1.2.23.36-.05.33-.02 0-.02-.1-.05-.1l-.1.04c-.05 0-.07.23-.14.03" fill="#1d81a4" fill-rule="nonzero" opacity=".9"/></g></g><g transform="matrix(1.24455 0 0 -1.24455 7.46 46.91)"><clipPath id="au"><path d="M12.1 26.42h2.15v1.4H12.1z"/></clipPath><g clip-path="url(#au)"><path d="M13.76 27.8c-.02-.24.08-.25.2-.3.16-.06.2-.03.3-.27-.13-.03-.24.02-.34-.07-.1-.1-.04-.24-.2-.33-.06-.05-.16-.03-.25-.05-.1-.02-.24-.13-.34-.1-.1 0-.1.2-.25.1-.06-.05-.04-.14-.1-.2-.04-.03-.1-.03-.15-.08-.2-.16-.45-.08-.52.3.16.03.38-.1.54-.07.25.07.05.4.35.38.12 0 .5-.24.56.07.06.36-.44-.22-.37.24.3 0 .1.2.1.4.12.06.27-.06.4-.02" fill="#1d81a4" fill-rule="nonzero" opacity=".85"/></g></g><g transform="matrix(1.24455 0 0 -1.24455 7.46 46.91)"><clipPath id="av"><path d="M13.76 26.58H16v1.45h-2.24z"/></clipPath><g clip-path="url(#av)"><path d="M15.23 26.6c-.12-.1-.15.07-.26.12-.08.04-.15 0-.24.03-.15.03-.25.1-.4.1-.13 0-.34-.13-.47-.06-.3.17.12.2.23.25-.03.18-.2.3-.16.5.05 0 .13 0 .18-.05.05.16-.02.28-.03.42a.5.5 0 00.17-.06c-.02.36.23.03.4-.05.2-.06.07-.03.22.05.17.1.14.1.27-.04.05-.03-.04-.1.1-.14.04-.02.08.1.12.12.12.02.17-.1.3-.15.06-.04.2-.02.25-.1.05-.06.05-.33.06-.4-.28-.07-.3-.12-.13-.44-.1-.05-.2 0-.32 0-.07.02-.12.05-.18.03-.1-.03-.05-.12-.18-.14" fill="#1d81a4" fill-rule="nonzero" opacity=".7"/></g></g><g transform="matrix(1.24455 0 0 -1.24455 7.46 46.91)"><clipPath id="aw"><path d="M9.66 28.08h1.2v.7h-1.2z"/></clipPath><g clip-path="url(#aw)"><path d="M10.83 28.72l-.13-.02c-.05 0-.1.06-.15.07-.06 0-.04.02-.1 0-.03 0-.06-.06-.1-.07-.07-.02-.14.07-.2.06-.12-.05 0-.2-.15-.23-.1-.03-.17.15-.27.1-.2-.14.1-.18.12-.23.05-.1-.06-.2.03-.26.1-.07.15.12.23.15.02-.06.05-.16.1-.2.1-.07.07.05.13.1.08.05.18.13.27.14.06 0 .3-.14.27.1 0 .08-.14 0-.14.1 0 .06.08.13.1.14" fill="#1d81a4" fill-rule="nonzero" opacity=".9"/></g></g><g transform="matrix(1.24455 0 0 -1.24455 7.46 46.91)"><clipPath id="ax"><path d="M8.62 32.1h1.85v-1.92H8.62v1.92z"/></clipPath><g clip-path="url(#ax)"><path d="M8.7 31.15c.4-.2-.1-.5.1-.75.12-.16.18.03.3-.04.16-.1.02-.27.2-.1.03.03-.05.13.1.07.07-.03.03-.17.15-.15.2.04-.17.4.1.18.1-.07.17-.23.3-.1.05.08.02.3-.1.37.08.14.23.08.35.14.1.07.1.18.16.3.04.1.14.22.1.38-.1.23-.15-.02-.26-.07-.08.07.16.75-.07.63-.08-.05-.03-.33-.16-.3-.07.03-.14.28-.18.33-.08-.08.04-.2-.03-.3-.15.34-.13-.08-.14-.15-.06 0-.1.02-.16.07-.07-.12.08-.48-.05-.5-.26-.07-.13.33-.12.4l-.13.02c.03.16.27.36.04.53v-.2c-.05 0-.1.06-.15.13-.02-.1 0-.2-.02-.3-.07-.27-.1-.02-.23-.06-.12-.05.03-.3 0-.37 0 0-.33-.13-.08-.15" fill="#1d81a4" fill-rule="nonzero" opacity=".9"/></g></g><g transform="matrix(1.24455 0 0 -1.24455 7.46 46.91)"><clipPath id="ay"><path d="M8.76 31.8h.52v-1h-.52v1.03-.03z"/></clipPath><g clip-path="url(#ay)"><path d="M9.08 31.8c.2-.07-.16-.3.08-.35-.02-.12-.08-.32-.2-.32-.04-.24.32.04.32-.27 0-.23-.36.07-.45.17-.18.23.02.7.23.77" fill="#1d81a4" fill-rule="nonzero" opacity=".8"/></g></g><g transform="matrix(1.24455 0 0 -1.24455 7.46 46.91)"><clipPath id="az"><path d="M10.1 30.98h1.55V29.9H10.1V31v-.02z"/></clipPath><g clip-path="url(#az)"><path d="M10.1 30.73c.05-.1.2-.15.27-.25.08-.12.12-.24.22-.3v.17c.17-.1.33-.5.52-.43 0 .05 0 .1-.03.14.08.02.4-.04.23.15.05.02.22 0 .26.02.1.1 0 .2-.1.2.02.06.17.2.15.26-.03.1-.17-.1-.2-.1-.02.03-.06.08-.06.12-.08-.05-.1-.17-.2-.2.02.23-.12.08-.2.08-.04.14.2.22.1.36-.07.15-.17-.14-.25-.16 0 .27-.17.13-.27.04l-.02.08c-.13.03-.17-.08-.27-.13-.08-.02-.15.03-.2-.04" fill="#1d81a4" fill-rule="nonzero" opacity=".9"/></g></g><g transform="matrix(1.24455 0 0 -1.24455 7.46 46.91)"><clipPath id="aA"><path d="M8.65 30.54h1.64v-.77H8.65v.77z"/></clipPath><g clip-path="url(#aA)"><path d="M10.15 29.88c-.04.18-.12-.06-.18-.07-.05 0-.05.08-.1.1h-.12c0 .08.1.2.16.16 0 .05-.06.13-.1.13-.1 0-.05-.04-.08-.1 0-.06.03-.1 0-.14-.06-.04-.13.02-.14.07-.1-.05-.12-.25-.23-.26-.1-.02-.18.2-.06.27.07.04.24-.05.3.07.08.18-.23.28-.2.04-.12.08-.14 0-.23 0-.05-.02-.1 0-.14 0-.05-.03-.08-.1-.15-.1-.07-.03-.25.04-.15.15.03.03.2.04.24.05-.04.12-.08.05-.14.08l-.16.1c-.08.23.22.04.26 0L9 30.4c.02-.02.1 0 .1 0 .04 0 .07-.1.12-.1.14-.04.16.2.28.2 0-.2.1.02.14.03.08 0 .05-.1.08-.12.06-.06 0-.03.1-.05.02 0 .05.03.1 0 .05-.04.03-.1.06-.14.03-.03.26-.08.1-.17.1-.02.2.04.2-.12 0-.1-.08-.13-.12-.03" fill="#1d81a4" fill-rule="nonzero" opacity=".85"/></g></g><g transform="matrix(1.24455 0 0 -1.24455 7.46 46.91)"><clipPath id="aB"><path d="M9.32 30.54h.4v.4h-.4z"/></clipPath><g clip-path="url(#aB)"><path d="M9.7 30.8c.04-.1-.03-.1-.06-.15-.03-.04-.07-.04-.1-.12 0 .16-.12.1-.2.06-.08.15.1.15.2.17-.06.06-.08.15 0 .16.08.02.08-.05.14-.1" fill="#1d81a4" fill-rule="nonzero" opacity=".9"/></g></g><g transform="matrix(1.24455 0 0 -1.24455 7.46 46.91)"><clipPath id="aC"><path d="M8.16 29.66h.5v.76h-.5z"/></clipPath><g clip-path="url(#aC)"><path d="M8.6 30.26c0-.17.1-.1 0-.26-.02-.04-.05.03-.06-.06-.02-.04.08-.06.06-.15-.05-.17-.15 0-.18 0-.08 0-.16-.16-.26-.14 0 .12.1.13.14.2.12.1.03.08 0 .22-.1-.02-.03.05-.04.1-.02.07-.1.12-.04.2.1.1.08-.07.1-.1.05-.06.1-.03.1-.15.07.03.1.1.17.13" fill="#1d81a4" fill-rule="nonzero" opacity=".9"/></g></g><g transform="matrix(1.24455 0 0 -1.24455 7.46 46.91)"><clipPath id="aD"><path d="M8.57 29.98h.54v-.43h-.53v.43z"/></clipPath><g clip-path="url(#aD)"><path d="M8.97 29.94c0-.15-.16-.1-.23-.06-.03-.23-.08-.07-.15-.18-.08-.1.02-.17.1-.14s.13.07.23.07c.07 0 .2 0 .18.1l-.03.03c.04.16.07.26-.12.2" fill="#1d81a4" fill-rule="nonzero" opacity=".85"/></g></g><g transform="matrix(1.24455 0 0 -1.24455 7.46 46.91)"><clipPath id="aE"><path d="M9.4 29.24h.73v.6H9.4z"/></clipPath><g clip-path="url(#aE)"><path d="M9.77 29.84c-.1 0-.15-.03-.24-.05-.12-.04-.23-.07-.05-.13.04 0 .13.02.14-.04.02-.06-.1-.08-.1-.14-.07-.18.12-.06.18-.04.02-.18.15-.22.28-.2l-.05.08c.04.02.15 0 .17.03.1.14-.1.1-.13.1-.14.04-.03.1-.07.16-.05.07-.18-.02-.25 0l.14.2h-.04" fill="#1d81a4" fill-rule="nonzero" opacity=".85"/></g></g><g transform="matrix(1.24455 0 0 -1.24455 7.46 46.91)"><clipPath id="aF"><path d="M7.63 23.05h4.1v3.18h-4.1z"/></clipPath><g clip-path="url(#aF)"><path d="M9.97 23.37c-.16-.1-.08-.3-.34-.32-.13.15.05.23.05.37 0 .07-.15.06-.1.13 0 .05.15.1.2.13l-.13.04-.12.1c-.2.12-.1.05-.38.03-.28-.03-.44.15-.54.34-.1.2-.14.17-.43.22-.22.03-.47.18-.54.34.1.06.24.08.36.1-.04.17-.15.1.07.3-.1.02-.4-.03-.4.1 0 .16.3.05.4.08.46.13-.45.12-.34.28.13.16.33 0 .43.02.17.03.18.16.28.13.07 0 .12-.2.17-.24.1-.1.16-.18.33-.2.03.06.02.14 0 .2.4 0 .25-.23.27-.4.08 0 .15.06.2.1.06-.08.1-.13.06-.22-.03-.1-.17-.13-.12-.23.12 0 .2.06.28.13.16-.14-.15-.26-.13-.33.04-.1.4.05.23-.18.27.04.3.1.2.28-.1.23-.1.2.2.27 0 .07.02.3.06.4.03.14.22.16.3 0 .24.16-.15.5-.17.66 0 .1.07.24.22.23.1 0 .24-.18.3-.23 0 .06.06.1.13.15.16-.13.15-.12.07-.3-.05-.13-.15-.2 0-.3 0 .12-.05.25.2.28.28.03.24-.13.2-.3 0-.1 0-.27-.12-.38-.1-.1-.3-.18-.44-.26.36.14.62-.1.2-.3.17-.1-.06-.13-.1-.24.1-.03.26.03.32 0 .14-.07.14-.28-.02-.33.12-.17.42.12.43-.15 0 0-.1-.04-.1-.08 0-.05.08-.1.07-.14a1.56 1.56 0 00-.3-.2c-.16-.07-.37-.1-.54-.18-.24-.1-.4-.22-.55 0-.13-.1-.33-.1-.32.05" fill="#1d81a4" fill-rule="nonzero" opacity=".9"/></g></g><g transform="matrix(1.24455 0 0 -1.24455 7.46 46.91)"><clipPath id="aG"><path d="M4.25 21.77H8v2.5H4.25z"/></clipPath><g clip-path="url(#aG)"><path d="M5.85 22.18c0-.07-.06-.13-.1-.15-.2.3-.13-.12-.17-.17-.12-.16-.27.05-.34.2-.03.08.07.12-.03.2 0 0-.17-.05-.2-.08 0-.02.08-.5-.08-.25-.06-.06-.12-.12-.2-.17-.06.06-.07.15-.07.23-.1-.04-.13-.15-.23-.07l-.15.3c-.07.2.07.3.16.44.07.13.1.1.04.25-.05.12-.16.15-.16.3 0 .03.1.22.14.25.1.12.14.13.26 0 0 .06.04.13.04.18.16-.25.27 0 .4.07.16.1.3.1.4.3.03.06 0 .23.1.25.13 0 .1-.18.13-.26.17-.3.17.13.33.2.1-.13.1-.56.23-.38.08-.08.13-.2.18-.3.1.05.03.4.18.37.23-.05.08-.45.1-.55.05-.2.1-.08.12 0 .07.1-.08.15.1.18.3.06.13-.25.28-.36.05-.03.16.08.25.02.05-.03.05-.13.1-.16.03-.03.07 0 .1-.05.13-.12.25-.24.27-.42 0-.1 0-.2-.08-.23-.1-.04-.14.08-.24.1-.17.02-.2-.12-.4-.03-.03.02-.06.12-.1.12-.04 0-.05-.06-.08-.05-.1 0-.04-.08-.2 0-.16.07-.3.27-.43.1.1-.14.27-.03.28-.25 0-.22-.16-.15-.27-.12-.06.02-.08.08-.16.1-.05 0-.1-.05-.14-.07-.18-.05-.22-.08-.34-.22-.03 0-.02.03-.04.04" fill="#1d81a4" fill-rule="nonzero" opacity=".9"/></g></g><g transform="matrix(1.24455 0 0 -1.24455 7.46 46.91)"><clipPath id="aH"><path d="M4.48 22.18h3.1v1.65h-3.1z"/></clipPath><g clip-path="url(#aH)"><path d="M5.9 23.06c.2-.18-.22-.52-.4-.37-.08.05-.18.43-.3.14-.02-.08.07-.14.04-.22-.05-.14-.06-.02-.16-.05-.15-.03-.14-.03-.22-.18-.07-.14-.1-.3-.3-.16-.26.23.2.56.3.7-.1.1-.3.1-.3.3-.03.22.2.15.35.18.08 0 .28.2.36.12.1-.1-.1-.2-.07-.32.25-.02.2.4.37.32.13-.07.12-.33.25-.24.1.06 0 .2 0 .3 0 .1-.04.1.06.16.05.04.13.08.2.07.08-.03.27-.18.3-.3 0-.1-.16-.12-.1-.3.2.02.18.27.32.3.26.05.03-.4.05-.48.2 0 .2.1.3.24.06.1 0 .17.12.06.06-.03.1-.2.1-.28.07.04.12.1.22.03.08-.05.04-.2.18-.2-.1-.07-.25-.16-.37-.2-.07-.02-.14 0-.22.02-.04.02-.07.1-.1.1-.07 0-.1-.04-.15-.03-.12.02-.32.03-.4.1-.07.08 0 .22-.15.28-.08.03-.16 0-.22-.04" fill="#1d81a4" fill-rule="nonzero" opacity=".75"/></g></g><g transform="matrix(1.24455 0 0 -1.24455 7.46 46.91)"><clipPath id="aI"><path d="M13.9 20.53h2.12v2.2H13.9z"/></clipPath><g clip-path="url(#aI)"><path d="M14 21.6c.43.23-.1.6.1.88.14.18.2-.04.33.04.2.13.04.3.24.12.05-.04-.05-.15.1-.1.1.05.06.2.2.18.22-.03-.2-.45.12-.2.1.08.18.27.3.1.1-.08.05-.35-.08-.4.08-.17.26-.1.4-.17.12-.1.12-.2.17-.34.04-.1.16-.25.1-.44-.08-.27-.16.02-.28.1-.1-.1.2-.9-.08-.74-.1.07-.04.4-.18.35-.1-.02-.18-.3-.2-.38-.1.1.04.24-.04.34-.16-.4-.15.1-.16.18-.07-.02-.13-.03-.2-.1-.07.16.1.57-.05.6-.28.08-.14-.4-.12-.47l-.14-.02c.02-.18.3-.42.04-.6v.22c-.08 0-.14-.08-.18-.15-.04.1 0 .23-.04.35-.08.3-.1 0-.26.06-.14.07.03.36 0 .43 0 0-.38.15-.1.18" fill="#1d81a4" fill-rule="nonzero" opacity=".9"/></g></g><g transform="matrix(1.24455 0 0 -1.24455 7.46 46.91)"><clipPath id="aJ"><path d="M14.06 20.84h.6v1.2h-.6z"/></clipPath><g clip-path="url(#aJ)"><path d="M14.42 20.85c.22.1-.18.37.1.42-.02.14-.1.36-.23.36-.06.28.36-.04.35.3 0 .27-.4-.07-.5-.18-.2-.26 0-.82.26-.9" fill="#1d81a4" fill-rule="nonzero" opacity=".8"/></g></g><g transform="matrix(1.24455 0 0 -1.24455 7.46 46.91)"><clipPath id="aK"><path d="M14.7 21.85h.45v.47h-.45z"/></clipPath><g clip-path="url(#aK)"><path d="M15.13 22c.06.12-.02.13-.06.18-.03.05-.08.05-.1.14-.03-.18-.15-.1-.24-.07-.1-.2.12-.2.2-.2-.04-.07-.07-.17.04-.2.08 0 .08.07.15.13" fill="#1d81a4" fill-rule="nonzero" opacity=".9"/></g></g><g transform="matrix(1.24455 0 0 -1.24455 7.46 46.91)"><clipPath id="aL"><path d="M11.3 21.26h3.2v1.87h-3.2z"/></clipPath><g clip-path="url(#aL)"><path d="M12.7 21.45c.34.46-.4.38-.55.4-.17 0-.24.1-.4.13-.14.02-.36-.22-.37.07.08.1.05.1.08.17-.07 0-.12.07-.17.1.22.25 1-.34.9.32.23-.1.13-.24.3-.07.04.03 0 .18.08.25.05.02.14-.16.14-.18.02.07.07.16.05.26.2.1.28-.06.23-.26.43-.1-.2.47.16.5.2 0 .12-.15.2-.3 0 .02-.13-.1-.06-.18.05-.04.1.05.13.02-.04.03.06.14.1.14.1 0 .07-.18.16-.18.17 0 .2.16.34.16.16 0 .46-.3.45-.55-.1 0-.23.04-.32.06.02 0 .04-.05.06-.1-.12-.1-.2.1-.32.2.03-.1.03-.22.05-.3-.07 0-.2 0-.28.06 0-.4-.5-.5-.45-.14a.66.66 0 01.03-.42c-.08.03-.14.03-.2.1-.08-.14-.33-.6-.5-.38l.12.1" fill="#1d81a4" fill-rule="nonzero" opacity=".9"/></g></g><g transform="matrix(1.24455 0 0 -1.24455 7.46 46.91)"><clipPath id="aM"><path d="M11.75 28.36h1.5v.94h-1.5z"/></clipPath><g clip-path="url(#aM)"><path d="M11.8 29.1c.04-.25.12-.32.3-.37.02 0 .1.03.13 0 .03 0 .05-.1.06-.1l.18-.12c.15-.08.18-.16.4-.14.04.02.08.06.14.06.07 0 .14-.06.22-.04 0 .07-.03.13-.08.18-.04.03-.14.06-.14.06-.08.1.03.26-.06.35-.14.13-.18-.16-.27-.18-.2-.04-.07.14-.13.24-.13.24-.15-.06-.2-.07-.2-.02-.1.26-.2.32-.02.02-.2-.04-.26-.05-.02-.02-.07.1-.12.03-.06-.06 0-.15.04-.18" fill="#1d81a4" fill-rule="nonzero" opacity=".9"/></g></g><g transform="matrix(1.24455 0 0 -1.24455 7.46 46.91)"><clipPath id="aN"><path d="M8.35 27.5h3.7v2.2h-3.7z"/></clipPath><g clip-path="url(#aN)"><path d="M10.83 28.65c0-.2 0-.32.2-.27 0-.1.2-.23.28-.25.15 0 .14.07.3.1.1.02.23-.05.35-.03.15.05.16.2-.03.18.25.37-.1.2-.23.34-.16.18.18.68-.15.46-.03.33-.36.25-.46.47-.05-.1-.26-.22-.35-.25-.1-.03-.38.03-.2-.18-.16-.15-.2.06-.33.12-.1.03-.12-.06-.2-.02-.05.03-.1.18-.12.22-.03-.06-.05-.1-.05-.2-.04.2-.18.14-.25 0-.1.1-.13.2-.2.3-.1.08-.14.08-.3.06 0 0 .07-.07.1-.08a.4.4 0 00-.2-.14c.05-.05.13-.07.2-.08-.07-.06-.15-.1-.22-.14.14-.1.33-.23.48-.3-.1-.14-.33-.06-.43 0-.05 0-.12.2-.23.1-.07-.06 0-.18.06-.24-.08-.13-.2-.06-.3-.22.25-.07.53.05.64-.32-.1-.1-.2.07-.35.1-.1 0-.13-.1-.15-.1-.07-.02-.1.03-.2.03.04-.04.1-.1.13-.15-.1-.03-.28.03-.28-.12.1-.06.04-.18.16-.25.08-.05.23-.02.3-.02.16 0 .57-.17.57.1.14 0 .23 0 .35.03.18.05.25.14.43.04 0-.18-.03-.5.2-.4.1.03.18.3.27.4.28.38-.03.07-.1.32-.02.13.24.3.3.4" fill="#1d81a4" fill-rule="nonzero" opacity=".9"/></g></g><g transform="matrix(1.24455 0 0 -1.24455 7.46 46.91)"><clipPath id="aO"><path d="M9.1 28.1h2.76v1.8H9.1z"/></clipPath><g clip-path="url(#aO)"><path d="M11.14 28.78l.08.14c.13-.08.1-.24.3-.17.05-.18.25-.02.34-.18a.8.8 0 00-.35-.22l-.3.07c-.03.02-.15.2-.17.23-.06.08-.08.2-.16.27-.07.12-.5.18-.48-.05 0-.15.23-.02.16-.28-.1-.34-.25 0-.36-.06-.07-.03-.03-.13-.13-.17-.1-.05-.1.08-.2-.03-.1-.1.05-.2-.1-.24-.17-.03-.1.1-.18.2-.02 0-.15.2-.14.2-.08.06-.14-.02-.24 0-.05.04-.16.15-.12.23.02.1.1.03.16.05.06 0 .2.13.24.1.12-.06.02-.22.1-.3.1-.13.33.04.42.1.15.08.3.13.23.38 0 .07-.18.14-.1.28.03.1.1.06.16.06.07 0 .16-.08.2-.02.07.06 0 .27 0 .32.02.08 0 .17.07.2.14.04.03-.23.1-.25.06-.05.1.1.1.14.1-.04.1-.15.1-.24.1-.05.2.03.3.1-.03-.13-.05-.22.04-.3.05-.04.18.05.22 0 .04-.04.07-.17.02-.23-.1-.12-.13.02-.2.06-.1.03-.4.23-.35-.02 0-.06.13-.17.16-.2.06-.08 0-.25.16-.17" fill="#1d81a4" fill-rule="nonzero" opacity=".85"/></g></g><g transform="matrix(1.24455 0 0 -1.24455 7.46 46.91)"><clipPath id="aP"><path d="M8.36 21.96h.9v.57h-.9z"/></clipPath><g clip-path="url(#aP)"><path d="M8.84 22.48c0-.04.05-.07.05-.13.1.07.3.26.37 0a.72.72 0 01-.33-.13c-.04-.05-.08-.15-.1-.2-.08-.04-.08 0-.14-.03 0 0-.24-.05-.27-.04-.13.06-.05.2.07.23-.1.16-.22.32.04.3.03 0 .03-.1.05-.1l.08.04c.05 0 .08.2.14 0" fill="#1d81a4" fill-rule="nonzero" opacity=".9"/></g></g><g transform="matrix(1.24455 0 0 -1.24455 7.46 46.91)"><clipPath id="aQ"><path d="M9.5 20.86h2v1.3h-2z"/></clipPath><g clip-path="url(#aQ)"><path d="M9.95 22.16c0-.24-.1-.25-.2-.3-.15-.06-.2-.03-.26-.25.1-.02.2.03.3-.06.1-.1.03-.22.17-.3.07-.05.17-.04.25-.05.1-.03.22-.13.32-.12.1.02.1.2.23.1.06-.04.04-.13.08-.17.05-.03.1-.03.16-.08.2-.14.43-.07.5.28-.15.03-.35-.1-.5-.06-.24.06-.05.4-.33.36-.12-.02-.48-.24-.53.06-.06.33.4-.2.34.22-.3-.02-.1.2-.1.36-.1.06-.26-.06-.38 0" fill="#1d81a4" fill-rule="nonzero" opacity=".85"/></g></g><g transform="matrix(1.24455 0 0 -1.24455 7.46 46.91)"><clipPath id="aR"><path d="M7.83 21h2.12v1.36H7.83z"/></clipPath><g clip-path="url(#aR)"><path d="M8.56 21.02c.12-.08.14.06.25.1.08.05.15.02.23.04.14.03.24.1.38.1.13 0 .33-.13.45-.06.28.16-.1.2-.2.24 0 .17.16.28.13.48-.05 0-.12 0-.17-.06-.04.15.02.27.04.4a.44.44 0 01-.17-.06c0 .34-.22.03-.38-.04-.18-.08-.08-.05-.22.03-.16.07-.14.07-.26-.04-.04-.05.04-.12-.08-.15-.05 0-.08.1-.13.13-.1 0-.16-.1-.27-.15-.06-.03-.2 0-.24-.1-.06-.05-.06-.3-.07-.37.27-.05.28-.1.13-.4.1-.03.2 0 .3 0 .07.03.12.06.17.04.1-.03.05-.12.17-.13" fill="#1d81a4" fill-rule="nonzero" opacity=".7"/></g></g></g><defs><linearGradient id="_Linear2" x1="0" y1="0" x2="1" y2="0" gradientUnits="userSpaceOnUse" gradientTransform="matrix(0 3.92136 2.61546 0 19.78 13.24)"><stop offset="0" stop-color="#00779b"/><stop offset="1" stop-color="#5998b7"/></linearGradient></defs></svg>